<svg width="24" height="18" viewBox="0 0 24 18" fill="none" xmlns="http://www.w3.org/2000/svg">
<path d="M0 14.6666C0 15.3738 0.280952 16.0521 0.781049 16.5522C1.28115 17.0523 1.95942 17.3333 2.66667 17.3333H21.3333C22.0406 17.3333 22.7189 17.0523 23.219 16.5522C23.719 16.0521 24 15.3738 24 14.6666V11.3333H0V14.6666Z" fill="#138808"/>
<path d="M24 6V2.66667C24 1.95942 23.719 1.28115 23.219 0.781048C22.7189 0.280951 22.0406 0 21.3333 0H2.66667C1.95942 0 1.28115 0.280951 0.781049 0.781048C0.280952 1.28115 0 1.95942 0 2.66667L0 6H24Z" fill="#FF9933"/>
<path d="M0 5.77783H24V11.5558H0V5.77783Z" fill="#F7F7F7"/>
<path d="M11.9999 11.3333C13.4727 11.3333 14.6666 10.1394 14.6666 8.66667C14.6666 7.19391 13.4727 6 11.9999 6C10.5272 6 9.33325 7.19391 9.33325 8.66667C9.33325 10.1394 10.5272 11.3333 11.9999 11.3333Z" fill="#000080"/>
<path d="M12 10.9165C13.2426 10.9165 14.25 9.90914 14.25 8.6665C14.25 7.42386 13.2426 6.4165 12 6.4165C10.7574 6.4165 9.75 7.42386 9.75 8.6665C9.75 9.90914 10.7574 10.9165 12 10.9165Z" fill="#F7F7F7"/>
<path d="M12.0665 7.8332L11.9998 8.26654L11.9331 7.8332L11.9998 6.5332L12.0665 7.8332ZM11.4478 6.60587L11.7198 7.87854L11.8965 8.27987L11.8485 7.84454L11.4478 6.60587ZM10.9331 6.8192L11.5251 7.97787L11.7998 8.31987L11.6411 7.9112L10.9331 6.8192ZM10.4911 7.15787L11.3631 8.12454L11.7171 8.38387L11.4578 8.02987L10.4911 7.15787ZM10.1525 7.59987L11.2445 8.30787L11.6531 8.46654L11.3111 8.19187L10.1525 7.59987ZM9.93912 8.11454L11.1778 8.5152L11.6131 8.5632L11.2118 8.38654L9.93912 8.11454ZM9.86646 8.66654L11.1665 8.7332L11.5998 8.66654L11.1665 8.59987L9.86646 8.66654ZM9.93912 9.21854L11.2118 8.94654L11.6131 8.76987L11.1778 8.81787L9.93912 9.21854ZM10.1525 9.7332L11.3111 9.1412L11.6531 8.86654L11.2445 9.0252L10.1525 9.7332ZM10.4911 10.1752L11.4578 9.3032L11.7171 8.9492L11.3631 9.20854L10.4911 10.1752ZM10.9331 10.5139L11.6411 9.42187L11.7998 9.0132L11.5251 9.3552L10.9331 10.5139ZM11.4478 10.7272L11.8485 9.48854L11.8965 9.0532L11.7198 9.45454L11.4478 10.7272ZM11.9998 10.7999L12.0665 9.49987L11.9998 9.06654L11.9331 9.49987L11.9998 10.7999ZM12.5518 10.7272L12.2798 9.45454L12.1031 9.0532L12.1511 9.48854L12.5518 10.7272ZM13.0665 10.5139L12.4745 9.3552L12.1998 9.0132L12.3585 9.42187L13.0665 10.5139ZM13.5085 10.1752L12.6365 9.20854L12.2825 8.9492L12.5418 9.3032L13.5085 10.1752ZM13.8471 9.7332L12.7551 9.0252L12.3465 8.86654L12.6885 9.1412L13.8471 9.7332ZM14.0605 9.21854L12.8218 8.81787L12.3865 8.76987L12.7878 8.94654L14.0605 9.21854ZM14.1331 8.66654L12.8331 8.59987L12.3998 8.66654L12.8331 8.7332L14.1331 8.66654ZM14.0605 8.11454L12.7878 8.38654L12.3865 8.5632L12.8218 8.5152L14.0605 8.11454ZM13.8471 7.59987L12.6885 8.19187L12.3465 8.46654L12.7551 8.30787L13.8471 7.59987ZM13.5085 7.15787L12.5418 8.02987L12.2825 8.38387L12.6365 8.12454L13.5085 7.15787ZM13.0665 6.8192L12.3585 7.9112L12.1998 8.31987L12.4745 7.97787L13.0665 6.8192ZM12.5518 6.60587L12.1511 7.84454L12.1031 8.27987L12.2798 7.87854L12.5518 6.60587Z" fill="#6666B3"/>
<path d="M11.7071 6.57258C11.7807 6.57258 11.8404 6.51288 11.8404 6.43924C11.8404 6.3656 11.7807 6.30591 11.7071 6.30591C11.6334 6.30591 11.5737 6.3656 11.5737 6.43924C11.5737 6.51288 11.6334 6.57258 11.7071 6.57258Z" fill="#000080"/>
<path d="M11.1402 6.72467C11.2138 6.72467 11.2735 6.66498 11.2735 6.59134C11.2735 6.5177 11.2138 6.45801 11.1402 6.45801C11.0665 6.45801 11.0068 6.5177 11.0068 6.59134C11.0068 6.66498 11.0665 6.72467 11.1402 6.72467Z" fill="#000080"/>
<path d="M10.6324 7.01715C10.706 7.01715 10.7657 6.95746 10.7657 6.88382C10.7657 6.81018 10.706 6.75049 10.6324 6.75049C10.5587 6.75049 10.499 6.81018 10.499 6.88382C10.499 6.95746 10.5587 7.01715 10.6324 7.01715Z" fill="#000080"/>
<path d="M10.2176 7.43195C10.2912 7.43195 10.3509 7.37225 10.3509 7.29862C10.3509 7.22498 10.2912 7.16528 10.2176 7.16528C10.1439 7.16528 10.0842 7.22498 10.0842 7.29862C10.0842 7.37225 10.1439 7.43195 10.2176 7.43195Z" fill="#000080"/>
<path d="M9.92459 7.94001C9.99823 7.94001 10.0579 7.88031 10.0579 7.80667C10.0579 7.73303 9.99823 7.67334 9.92459 7.67334C9.85096 7.67334 9.79126 7.73303 9.79126 7.80667C9.79126 7.88031 9.85096 7.94001 9.92459 7.94001Z" fill="#000080"/>
<path d="M9.77298 8.50641C9.84662 8.50641 9.90632 8.44672 9.90632 8.37308C9.90632 8.29944 9.84662 8.23975 9.77298 8.23975C9.69934 8.23975 9.63965 8.29944 9.63965 8.37308C9.63965 8.44672 9.69934 8.50641 9.77298 8.50641Z" fill="#000080"/>
<path d="M9.77298 9.09333C9.84662 9.09333 9.90632 9.03363 9.90632 8.95999C9.90632 8.88636 9.84662 8.82666 9.77298 8.82666C9.69934 8.82666 9.63965 8.88636 9.63965 8.95999C9.63965 9.03363 9.69934 9.09333 9.77298 9.09333Z" fill="#000080"/>
<path d="M9.92459 9.65998C9.99823 9.65998 10.0579 9.60028 10.0579 9.52664C10.0579 9.45301 9.99823 9.39331 9.92459 9.39331C9.85096 9.39331 9.79126 9.45301 9.79126 9.52664C9.79126 9.60028 9.85096 9.65998 9.92459 9.65998Z" fill="#000080"/>
<path d="M10.2176 10.168C10.2912 10.168 10.3509 10.1083 10.3509 10.0347C10.3509 9.96106 10.2912 9.90137 10.2176 9.90137C10.1439 9.90137 10.0842 9.96106 10.0842 10.0347C10.0842 10.1083 10.1439 10.168 10.2176 10.168Z" fill="#000080"/>
<path d="M10.6324 10.5826C10.706 10.5826 10.7657 10.5229 10.7657 10.4493C10.7657 10.3756 10.706 10.3159 10.6324 10.3159C10.5587 10.3159 10.499 10.3756 10.499 10.4493C10.499 10.5229 10.5587 10.5826 10.6324 10.5826Z" fill="#000080"/>
<path d="M11.1402 10.8753C11.2138 10.8753 11.2735 10.8156 11.2735 10.742C11.2735 10.6683 11.2138 10.6086 11.1402 10.6086C11.0665 10.6086 11.0068 10.6683 11.0068 10.742C11.0068 10.8156 11.0665 10.8753 11.1402 10.8753Z" fill="#000080"/>
<path d="M11.7071 11.0272C11.7807 11.0272 11.8404 10.9675 11.8404 10.8938C11.8404 10.8202 11.7807 10.7605 11.7071 10.7605C11.6334 10.7605 11.5737 10.8202 11.5737 10.8938C11.5737 10.9675 11.6334 11.0272 11.7071 11.0272Z" fill="#000080"/>
<path d="M12.2937 11.0272C12.3674 11.0272 12.4271 10.9675 12.4271 10.8938C12.4271 10.8202 12.3674 10.7605 12.2937 10.7605C12.2201 10.7605 12.1604 10.8202 12.1604 10.8938C12.1604 10.9675 12.2201 11.0272 12.2937 11.0272Z" fill="#000080"/>
<path d="M12.8601 10.8753C12.9338 10.8753 12.9935 10.8156 12.9935 10.742C12.9935 10.6683 12.9338 10.6086 12.8601 10.6086C12.7865 10.6086 12.7268 10.6683 12.7268 10.742C12.7268 10.8156 12.7865 10.8753 12.8601 10.8753Z" fill="#000080"/>
<path d="M13.368 10.5826C13.4416 10.5826 13.5013 10.5229 13.5013 10.4493C13.5013 10.3756 13.4416 10.3159 13.368 10.3159C13.2943 10.3159 13.2346 10.3756 13.2346 10.4493C13.2346 10.5229 13.2943 10.5826 13.368 10.5826Z" fill="#000080"/>
<path d="M13.7827 10.168C13.8564 10.168 13.9161 10.1083 13.9161 10.0347C13.9161 9.96106 13.8564 9.90137 13.7827 9.90137C13.7091 9.90137 13.6494 9.96106 13.6494 10.0347C13.6494 10.1083 13.7091 10.168 13.7827 10.168Z" fill="#000080"/>
<path d="M14.0757 9.65998C14.1494 9.65998 14.209 9.60028 14.209 9.52664C14.209 9.45301 14.1494 9.39331 14.0757 9.39331C14.0021 9.39331 13.9424 9.45301 13.9424 9.52664C13.9424 9.60028 14.0021 9.65998 14.0757 9.65998Z" fill="#000080"/>
<path d="M14.2273 9.09333C14.301 9.09333 14.3607 9.03363 14.3607 8.95999C14.3607 8.88636 14.301 8.82666 14.2273 8.82666C14.1537 8.82666 14.094 8.88636 14.094 8.95999C14.094 9.03363 14.1537 9.09333 14.2273 9.09333Z" fill="#000080"/>
<path d="M14.2273 8.50641C14.301 8.50641 14.3607 8.44672 14.3607 8.37308C14.3607 8.29944 14.301 8.23975 14.2273 8.23975C14.1537 8.23975 14.094 8.29944 14.094 8.37308C14.094 8.44672 14.1537 8.50641 14.2273 8.50641Z" fill="#000080"/>
<path d="M14.0757 7.94001C14.1494 7.94001 14.209 7.88031 14.209 7.80667C14.209 7.73303 14.1494 7.67334 14.0757 7.67334C14.0021 7.67334 13.9424 7.73303 13.9424 7.80667C13.9424 7.88031 14.0021 7.94001 14.0757 7.94001Z" fill="#000080"/>
<path d="M13.7827 7.43195C13.8564 7.43195 13.9161 7.37225 13.9161 7.29862C13.9161 7.22498 13.8564 7.16528 13.7827 7.16528C13.7091 7.16528 13.6494 7.22498 13.6494 7.29862C13.6494 7.37225 13.7091 7.43195 13.7827 7.43195Z" fill="#000080"/>
<path d="M13.368 7.01715C13.4416 7.01715 13.5013 6.95746 13.5013 6.88382C13.5013 6.81018 13.4416 6.75049 13.368 6.75049C13.2943 6.75049 13.2346 6.81018 13.2346 6.88382C13.2346 6.95746 13.2943 7.01715 13.368 7.01715Z" fill="#000080"/>
<path d="M12.8601 6.72467C12.9338 6.72467 12.9935 6.66498 12.9935 6.59134C12.9935 6.5177 12.9338 6.45801 12.8601 6.45801C12.7865 6.45801 12.7268 6.5177 12.7268 6.59134C12.7268 6.66498 12.7865 6.72467 12.8601 6.72467Z" fill="#000080"/>
<path d="M12.2937 6.57258C12.3674 6.57258 12.4271 6.51288 12.4271 6.43924C12.4271 6.3656 12.3674 6.30591 12.2937 6.30591C12.2201 6.30591 12.1604 6.3656 12.1604 6.43924C12.1604 6.51288 12.2201 6.57258 12.2937 6.57258Z" fill="#000080"/>
<path d="M11.9999 9.26665C12.3313 9.26665 12.5999 8.99802 12.5999 8.66665C12.5999 8.33528 12.3313 8.06665 11.9999 8.06665C11.6685 8.06665 11.3999 8.33528 11.3999 8.66665C11.3999 8.99802 11.6685 9.26665 11.9999 9.26665Z" fill="#000080"/>
</svg>
