<svg width="27" height="26" viewBox="0 0 27 26" fill="none" xmlns="http://www.w3.org/2000/svg">
<path d="M12.0387 5.4569H14.9613V2.39723H12.0387V5.4569ZM13.5 12.9735C12.068 12.9735 10.6831 12.7143 9.34533 12.196C8.00933 11.6777 6.72756 11.0188 5.5 10.2195V7.71118C5.5 7.09143 5.71067 6.56101 6.132 6.11993C6.55333 5.67884 7.06089 5.45783 7.65467 5.4569H10.7053V2.07479C10.7053 1.78632 10.8076 1.53507 11.012 1.32104C11.2164 1.10701 11.456 1 11.7307 1H15.2693C15.5449 1 15.7849 1.10701 15.9893 1.32104C16.1938 1.53507 16.296 1.78632 16.296 2.07479V5.4569H19.3467C19.9387 5.4569 20.4453 5.67791 20.8667 6.11993C21.288 6.56194 21.4991 7.09236 21.5 7.71118V10.2195C20.2733 11.0198 18.9916 11.6786 17.6547 12.196C16.3178 12.7143 14.9329 12.9735 13.5 12.9735ZM7.65467 24.9986V23.6028C7.06178 23.6028 6.55467 23.3818 6.13333 22.9397C5.712 22.4977 5.50089 21.9678 5.5 21.3499V11.8582C6.64222 12.5412 7.82311 13.1042 9.04267 13.5472C10.2622 13.9883 11.5258 14.2572 12.8333 14.354V15.7652H14.1667V14.354C15.4742 14.2572 16.7378 13.9878 17.9573 13.5458C19.1778 13.1038 20.3587 12.5408 21.5 11.8568V21.3485C21.5 21.9692 21.2889 22.5001 20.8667 22.9411C20.4444 23.3822 19.9378 23.6032 19.3467 23.6042V25H18.0133V23.6042H8.98667V25L7.65467 24.9986Z" fill="url(#paint0_linear_333_91)"/>
<defs>
<linearGradient id="paint0_linear_333_91" x1="5.5" y1="1" x2="27.8167" y2="14.7411" gradientUnits="userSpaceOnUse">
<stop stop-color="#FFE3E5"/>
<stop offset="1" stop-color="#BB878B"/>
</linearGradient>
</defs>
</svg>
