<svg width="42" height="42" viewBox="0 0 42 42" fill="none" xmlns="http://www.w3.org/2000/svg">
<rect x="0.283203" y="0.785156" width="41" height="41" rx="4" fill="#323232"/>
<path fill-rule="evenodd" clip-rule="evenodd" d="M24.5472 11.3779C25.1043 11.3779 25.6503 11.5331 26.1242 11.8259C26.598 12.1187 26.981 12.5377 27.2302 13.0359L28.6162 15.8069C28.8602 15.7069 29.1002 15.5989 29.3362 15.4829C29.5736 15.3644 29.8483 15.345 30.1 15.429C30.3517 15.513 30.5597 15.6936 30.6782 15.9309C30.7968 16.1683 30.8162 16.443 30.7321 16.6947C30.6481 16.9464 30.4676 17.1544 30.2302 17.2729C29.9898 17.3799 29.7481 17.4839 29.5052 17.5849L30.4662 19.5079C30.6748 19.9249 30.7833 20.3847 30.7832 20.8509V23.3779C30.7832 23.8 30.6941 24.2173 30.5218 24.6026C30.3495 24.9879 30.0978 25.3325 29.7832 25.6139V26.8779C29.7832 27.2758 29.6252 27.6573 29.3439 27.9386C29.0626 28.2199 28.681 28.3779 28.2832 28.3779C27.8854 28.3779 27.5038 28.2199 27.2225 27.9386C26.9412 27.6573 26.7832 27.2758 26.7832 26.8779V26.3779H14.7832V26.8779C14.7832 27.2758 14.6252 27.6573 14.3439 27.9386C14.0626 28.2199 13.681 28.3779 13.2832 28.3779C12.8854 28.3779 12.5038 28.2199 12.2225 27.9386C11.9412 27.6573 11.7832 27.2758 11.7832 26.8779V25.6139C11.1692 25.0639 10.7832 24.2659 10.7832 23.3779V20.8499C10.7834 20.3844 10.8919 19.9253 11.1002 19.5089L12.0532 17.6009C11.8119 17.4996 11.5735 17.3906 11.3382 17.2739C11.102 17.1538 10.9225 16.9458 10.8383 16.6945C10.7542 16.4433 10.7721 16.1691 10.8882 15.9309C10.9469 15.8134 11.0281 15.7085 11.1273 15.6223C11.2265 15.5362 11.3417 15.4704 11.4664 15.4288C11.591 15.3872 11.7226 15.3706 11.8537 15.3799C11.9847 15.3892 12.1127 15.4242 12.2302 15.4829C12.4669 15.5996 12.7069 15.7076 12.9502 15.8069L14.3362 13.0369C14.5853 12.5385 14.9682 12.1193 15.4421 11.8263C15.9159 11.5333 16.462 11.378 17.0192 11.3779H24.5472ZM16.2832 20.3779C15.8854 20.3779 15.5038 20.536 15.2225 20.8173C14.9412 21.0986 14.7832 21.4801 14.7832 21.8779C14.7832 22.2758 14.9412 22.6573 15.2225 22.9386C15.5038 23.2199 15.8854 23.3779 16.2832 23.3779C16.681 23.3779 17.0626 23.2199 17.3439 22.9386C17.6252 22.6573 17.7832 22.2758 17.7832 21.8779C17.7832 21.4801 17.6252 21.0986 17.3439 20.8173C17.0626 20.536 16.681 20.3779 16.2832 20.3779ZM25.2832 20.3779C24.8854 20.3779 24.5038 20.536 24.2225 20.8173C23.9412 21.0986 23.7832 21.4801 23.7832 21.8779C23.7832 22.2758 23.9412 22.6573 24.2225 22.9386C24.5038 23.2199 24.8854 23.3779 25.2832 23.3779C25.681 23.3779 26.0626 23.2199 26.3439 22.9386C26.6252 22.6573 26.7832 22.2758 26.7832 21.8779C26.7832 21.4801 26.6252 21.0986 26.3439 20.8173C26.0626 20.536 25.681 20.3779 25.2832 20.3779ZM24.5472 13.3779H17.0192C16.8546 13.3779 16.6926 13.4185 16.5474 13.4961C16.4023 13.5738 16.2786 13.686 16.1872 13.8229L16.1252 13.9309L14.8552 16.4689C16.4032 16.9329 18.4892 17.3779 20.7832 17.3779C22.9252 17.3779 24.8842 16.9899 26.3932 16.5609L26.7102 16.4689L25.4412 13.9309C25.3676 13.7837 25.2588 13.657 25.1245 13.5619C24.9902 13.4669 24.8345 13.4064 24.6712 13.3859L24.5482 13.3779H24.5472Z" fill="url(#paint0_linear_486_1648)"/>
<defs>
<linearGradient id="paint0_linear_486_1648" x1="12.0563" y1="11.3779" x2="28.4433" y2="30.3946" gradientUnits="userSpaceOnUse">
<stop stop-color="#F9EAC0"/>
<stop offset="1" stop-color="#C1A165"/>
</linearGradient>
</defs>
</svg>
