<svg width="42" height="42" viewBox="0 0 42 42" fill="none" xmlns="http://www.w3.org/2000/svg">
<rect x="0.283203" y="0.785156" width="41" height="41" rx="4" fill="#323232"/>
<path fill-rule="evenodd" clip-rule="evenodd" d="M10.7832 21.2852C10.7832 15.7622 15.2602 11.2852 20.7832 11.2852C26.3062 11.2852 30.7832 15.7622 30.7832 21.2852C30.7832 26.8082 26.3062 31.2852 20.7832 31.2852C15.2602 31.2852 10.7832 26.8082 10.7832 21.2852ZM21.7832 17.2852C21.7832 17.0199 21.6778 16.7656 21.4903 16.578C21.3028 16.3905 21.0484 16.2852 20.7832 16.2852C20.518 16.2852 20.2636 16.3905 20.0761 16.578C19.8886 16.7656 19.7832 17.0199 19.7832 17.2852V21.2852C19.7833 21.5504 19.8887 21.8047 20.0762 21.9922L23.0762 24.9922C23.2648 25.1743 23.5174 25.2751 23.7796 25.2728C24.0418 25.2706 24.2926 25.1654 24.478 24.98C24.6634 24.7946 24.7686 24.5438 24.7709 24.2816C24.7732 24.0194 24.6724 23.7668 24.4902 23.5782L21.7832 20.8712V17.2852Z" fill="url(#paint0_linear_486_1654)"/>
<defs>
<linearGradient id="paint0_linear_486_1654" x1="12.0562" y1="11.2852" x2="31.5472" y2="30.5106" gradientUnits="userSpaceOnUse">
<stop stop-color="#F9EAC0"/>
<stop offset="1" stop-color="#C1A165"/>
</linearGradient>
</defs>
</svg>
