<svg width="153" height="176" viewBox="0 0 153 176" fill="none" xmlns="http://www.w3.org/2000/svg">
<path fill-rule="evenodd" clip-rule="evenodd" d="M32.5535 17.8947C32.5535 15.7784 54.423 0.945312 76.1376 0.945312C97.8522 0.945312 119.722 15.7784 119.722 17.8947C119.722 25.4493 118.918 29.9239 118.24 32.3598C117.79 33.9579 116.293 34.8441 114.632 34.8441H37.6432C35.9821 34.8441 34.4857 33.9579 34.0354 32.3598C33.3574 29.9239 32.5535 25.4493 32.5535 17.8947ZM68.8736 15.4734C67.5892 15.4734 66.3575 15.9836 65.4493 16.8917C64.5411 17.7999 64.0309 19.0317 64.0309 20.316C64.0309 21.6004 64.5411 22.8322 65.4493 23.7403C66.3575 24.6485 67.5892 25.1587 68.8736 25.1587H83.4017C84.686 25.1587 85.9178 24.6485 86.826 23.7403C87.7341 22.8322 88.2443 21.6004 88.2443 20.316C88.2443 19.0317 87.7341 17.7999 86.826 16.8917C85.9178 15.9836 84.686 15.4734 83.4017 15.4734H68.8736ZM37.5802 64.9559C21.4541 59.9679 25.5219 51.0574 31.6721 44.5295H121.949C126.87 50.8153 129.509 59.2948 114.637 64.3699C114.798 65.8066 114.879 67.2642 114.879 68.7429C114.877 73.9888 113.81 79.1796 111.741 84.0007C109.673 88.8217 106.648 93.1726 102.848 96.7893C99.0479 100.406 94.5531 103.213 89.6359 105.041C84.7187 106.869 79.4816 107.679 74.2419 107.422C69.0023 107.166 63.8694 105.848 59.1544 103.548C54.4394 101.248 50.2405 98.015 46.8124 94.0441C43.3843 90.0732 40.7984 85.4475 39.2114 80.4473C37.6245 75.4472 37.0695 70.1769 37.5802 64.9559ZM74.8204 68.7429C87.6148 68.7429 97.5326 68.0649 105.136 66.8833C105.174 67.4967 105.194 68.1165 105.194 68.7429C105.19 72.6206 104.411 76.4585 102.901 80.0302C101.391 83.602 99.1816 86.8354 96.4026 89.5399C93.6237 92.2444 90.3315 94.3653 86.7201 95.7776C83.1087 97.1899 79.2511 97.865 75.3747 97.7632C71.4983 97.6614 67.6814 96.7847 64.1491 95.1847C60.6169 93.5848 57.4405 91.294 54.8074 88.4473C52.1743 85.6006 50.1376 82.2557 48.8174 78.6096C47.4972 74.9635 46.9201 71.09 47.1203 67.2174C54.2051 68.1956 63.2852 68.7429 74.8204 68.7429ZM116.898 139.446C112.519 132.611 106.49 126.989 99.3665 123.096C92.2434 119.203 84.2551 117.165 76.1376 117.17C68.0168 117.164 60.025 119.202 52.899 123.097C45.773 126.991 39.7422 132.617 35.3623 139.456C33.7331 136.955 31.2376 135.144 28.3549 134.371L18.9988 131.867C15.8978 131.036 12.5934 131.47 9.81266 133.075C7.03188 134.68 5.00237 137.323 4.17054 140.424L0.412618 154.458C0.00104807 155.994 -0.103963 157.596 0.103582 159.172C0.311126 160.749 0.827164 162.269 1.62222 163.646C2.41728 165.023 3.47578 166.23 4.73729 167.198C5.9988 168.165 7.4386 168.875 8.97448 169.287L18.3257 171.795C19.8989 172.217 21.5409 172.316 23.1535 172.088C24.7661 171.86 26.3161 171.309 27.7108 170.468C27.7147 171.753 28.2286 172.983 29.1395 173.888C30.0504 174.794 31.2837 175.3 32.568 175.296C33.8524 175.293 35.0826 174.779 35.9881 173.868C36.8935 172.957 37.4 171.724 37.3962 170.439V165.597C37.3962 163.75 37.5221 161.937 37.7739 160.158L62.9752 166.914C64.145 169.418 66.0048 171.536 68.3362 173.02C70.6676 174.504 73.3739 175.292 76.1376 175.292C78.9013 175.292 81.6077 174.504 83.9391 173.02C86.2705 171.536 88.1302 169.418 89.3 166.914L114.501 160.158C114.75 161.937 114.876 163.75 114.879 165.597V170.439C114.873 171.724 115.377 172.958 116.28 173.871C117.184 174.783 118.413 175.3 119.698 175.306C120.982 175.313 122.216 174.808 123.129 173.905C124.042 173.001 124.558 171.772 124.564 170.488C127.276 172.115 130.627 172.681 133.925 171.795L143.281 169.291C144.817 168.88 146.257 168.17 147.519 167.202C148.78 166.235 149.839 165.028 150.634 163.651C151.429 162.274 151.945 160.754 152.152 159.177C152.36 157.601 152.255 155.999 151.843 154.463L148.081 140.429C147.249 137.328 145.219 134.685 142.438 133.08C139.658 131.475 136.353 131.041 133.252 131.872L123.896 134.376C121.02 135.146 118.529 136.954 116.898 139.446ZM40.3163 150.807C42.9338 144.482 47.1785 138.962 52.6194 134.808C58.0603 130.654 64.5036 128.014 71.295 127.155V147.054C69.1233 147.821 67.1653 149.094 65.5823 150.767C63.9993 152.44 62.8368 154.466 62.1907 156.676L40.3163 150.807ZM111.959 150.807C109.341 144.482 105.097 138.962 99.6559 134.808C94.215 130.654 87.7717 128.014 80.9803 127.155V147.054C85.3581 148.604 88.777 152.187 90.0846 156.676L111.959 150.807ZM76.1376 165.597C77.422 165.597 78.6538 165.086 79.5619 164.178C80.4701 163.27 80.9803 162.038 80.9803 160.754C80.9803 159.469 80.4701 158.238 79.5619 157.33C78.6538 156.421 77.422 155.911 76.1376 155.911C74.8533 155.911 73.6215 156.421 72.7133 157.33C71.8052 158.238 71.295 159.469 71.295 160.754C71.295 162.038 71.8052 163.27 72.7133 164.178C73.6215 165.086 74.8533 165.597 76.1376 165.597Z" fill="url(#paint0_linear_486_1670)"/>
<defs>
<linearGradient id="paint0_linear_486_1670" x1="9.69134" y1="0.945309" x2="177.754" y2="145.703" gradientUnits="userSpaceOnUse">
<stop stop-color="#F9EAC0"/>
<stop offset="1" stop-color="#C1A165"/>
</linearGradient>
</defs>
</svg>
