<svg xmlns="http://www.w3.org/2000/svg" width="562" height="547" viewBox="364 383 562 547" fill="none">
<path d="M577.864 508.004L524.952 481.484C524.062 481.038 523.848 479.865 524.522 479.133L529.198 474.054C529.63 473.585 530.312 473.441 530.896 473.695L580.518 495.299C585.797 498.066 590.164 494.338 591.687 492.128L635.954 432.304C636.241 431.916 636.698 431.69 637.181 431.698L644.596 431.816C645.77 431.835 646.473 433.126 645.836 434.113C635.307 450.428 615.793 480.816 611.638 487.869C607.283 495.263 610.541 506.36 612.714 510.985L647.598 565.074C650.823 571.872 646.098 570.395 643.203 568.741C643.107 568.687 643.02 568.621 642.939 568.546L578.213 508.247C578.109 508.15 577.991 508.068 577.864 508.004Z" fill="url(#paint0_linear_616_12554)" stroke="url(#paint1_linear_616_12554)" stroke-width="4.48891"/>
<path d="M719.463 513.252L728.578 455.055C728.733 454.069 729.793 453.507 730.696 453.934L736.922 456.875C737.495 457.146 737.836 457.749 737.772 458.38L732.318 512.014C731.294 517.857 736.153 520.909 738.711 521.704L808.878 546.103C809.331 546.26 809.681 546.625 809.819 547.085L811.949 554.159C812.289 555.288 811.264 556.352 810.128 556.036C791.455 550.85 756.744 541.292 748.797 539.429C740.464 537.476 730.925 543.866 727.197 547.306L686.463 596.539C680.993 601.623 680.961 596.69 681.652 593.445C681.675 593.336 681.711 593.233 681.758 593.133L719.337 513.66C719.398 513.531 719.44 513.393 719.463 513.252Z" fill="url(#paint2_linear_616_12554)" stroke="url(#paint3_linear_616_12554)" stroke-width="4.48891"/>
<path d="M756.87 649.048L814.717 640.014C815.709 639.859 816.569 640.705 816.43 641.7L815.477 648.496C815.39 649.119 814.922 649.621 814.306 649.752L761.831 660.884C755.987 661.688 754.526 667.232 754.526 669.904L752.062 744.153C752.049 744.529 751.896 744.886 751.632 745.154L745.243 751.633C744.319 752.57 742.723 751.949 742.686 750.633C742.126 730.813 741.257 692.884 740.689 684.875C740.085 676.366 731.213 669.248 726.853 666.753L668.157 643.032C661.725 639.382 666.391 637.852 669.672 637.521C669.782 637.51 669.893 637.512 670.003 637.527L756.441 649.053C756.584 649.072 756.728 649.071 756.87 649.048Z" fill="url(#paint4_linear_616_12554)" stroke="url(#paint5_linear_616_12554)" stroke-width="4.48891"/>
<path d="M639.199 727.897L666.194 781.121C666.641 782.002 666.127 783.066 665.159 783.264L658.363 784.648C657.732 784.776 657.09 784.487 656.768 783.93L629.536 736.73C626.916 731.326 621.186 731.784 618.649 732.688L547.527 755.384C547.061 755.532 546.553 755.445 546.165 755.149L540.228 750.624C539.3 749.916 539.491 748.47 540.578 748.045C558.721 740.941 592.501 727.628 600.035 724.316C607.925 720.848 611.868 709.818 612.853 704.737L616.742 639.68C618.166 632.191 621.104 636.214 622.46 639.29C622.504 639.39 622.535 639.494 622.556 639.602L639.062 727.496C639.089 727.635 639.134 727.77 639.199 727.897Z" fill="url(#paint6_linear_616_12554)" stroke="url(#paint7_linear_616_12554)" stroke-width="4.48891"/>
<path d="M530.874 641.095L490.334 683.965C489.649 684.69 488.46 684.554 487.956 683.693L484.474 677.745C484.153 677.197 484.213 676.506 484.624 676.021L519.543 634.852C523.703 630.61 521.415 625.346 519.751 623.245L475.573 563.464C475.287 563.077 475.205 562.577 475.351 562.119L477.603 555.073C477.962 553.951 479.406 553.653 480.165 554.554C492.661 569.383 515.948 596.892 521.462 602.921C527.244 609.241 538.755 609.359 543.787 608.628L605.381 591.027C612.786 589.924 610.015 594.012 607.604 596.299C607.524 596.375 607.435 596.44 607.34 596.496L531.208 640.83C531.085 640.902 530.972 640.991 530.874 641.095Z" fill="url(#paint8_linear_616_12554)" stroke="url(#paint9_linear_616_12554)" stroke-width="4.48891"/>
<circle cx="645.005" cy="608.693" r="176.473" transform="rotate(-23.466 645.005 608.693)" stroke="url(#paint10_linear_616_12554)" stroke-width="6.73337"/>
<circle cx="644.998" cy="608.695" r="20.214" transform="rotate(-23.466 644.998 608.695)" fill="url(#paint11_linear_616_12554)"/>
<circle cx="644.93" cy="608.727" r="12.7186" transform="rotate(-23.466 644.93 608.727)" fill="#C1A065" stroke="#F8EABF" stroke-width="0.748152"/>
<circle cx="621.993" cy="578.838" r="6.0254" transform="rotate(-23.466 621.993 578.838)" stroke="url(#paint12_linear_616_12554)" stroke-width="2.24446"/>
<circle cx="666.75" cy="575.136" r="6.0254" transform="rotate(-23.466 666.75 575.136)" stroke="url(#paint13_linear_616_12554)" stroke-width="2.24446"/>
<circle cx="681.832" cy="618.099" r="6.0254" transform="rotate(-23.466 681.832 618.099)" stroke="url(#paint14_linear_616_12554)" stroke-width="2.24446"/>
<circle cx="644.895" cy="645.909" r="6.0254" transform="rotate(-23.466 644.895 645.909)" stroke="url(#paint15_linear_616_12554)" stroke-width="2.24446"/>
<circle cx="609.149" cy="620.27" r="6.0254" transform="rotate(-23.466 609.149 620.27)" stroke="url(#paint16_linear_616_12554)" stroke-width="2.24446"/>
<path d="M648.056 393.696C677.375 393.696 705.457 398.445 732.299 407.943C759.554 417.028 783.712 430.862 804.772 449.445C825.833 467.615 842.558 490.122 854.946 516.964C867.748 543.806 874.149 574.985 874.149 610.499C874.149 633.212 871.465 654.273 866.097 673.682C860.728 693.09 853.295 710.641 843.797 726.333C834.299 742.025 822.736 756.066 809.108 768.455C796.069 780.272 781.822 790.479 766.37 799.079C766.369 799.08 766.368 799.082 766.367 799.083L766.355 799.087C766.153 799.2 765.951 799.315 765.748 799.427L765.79 799.326L734.776 812.435C707.521 822.345 678.614 827.301 648.056 827.301C635.857 827.301 623.806 826.488 611.901 824.87L693.111 857.016C716.264 865.486 736.687 871.698 754.381 875.651C772.263 879.604 788.075 881.58 801.815 881.58C821.58 881.58 847.368 876.592 879.179 866.616L887.084 882.992C852.074 902.003 828.733 913.767 817.062 918.285C805.581 922.803 795.98 925.061 788.263 925.062C770.757 925.061 752.781 921.674 734.334 914.897C701.77 902.662 659.794 881.203 608.407 850.521C579.231 833.016 555.984 821.158 538.667 814.946C521.538 808.735 498.573 803.652 469.773 799.699V777.958C481.067 779.276 493.115 781.535 505.914 784.734L509.021 785.902C502.902 781.639 497.007 777.063 491.338 772.172C470.277 753.589 453.346 730.875 440.544 704.033C428.155 676.778 421.961 645.6 421.961 610.499C421.961 574.985 428.155 543.806 440.544 516.964C453.346 490.122 470.277 467.615 491.338 449.445C512.399 430.862 536.557 417.028 563.812 407.943C591.067 398.445 619.149 393.696 648.056 393.696ZM644.315 417.973C539.005 417.973 453.634 503.344 453.634 608.654C453.634 713.965 539.005 799.336 644.315 799.337C749.626 799.337 834.998 713.965 834.998 608.654C834.998 503.343 749.626 417.973 644.315 417.973Z" fill="url(#paint17_linear_616_12554)"/>
<defs>
<linearGradient id="paint0_linear_616_12554" x1="529.351" y1="473.517" x2="701.617" y2="538.322" gradientUnits="userSpaceOnUse">
<stop stop-color="#F9EAC0"/>
<stop offset="1" stop-color="#C1A165"/>
</linearGradient>
<linearGradient id="paint1_linear_616_12554" x1="529.351" y1="473.517" x2="701.617" y2="538.322" gradientUnits="userSpaceOnUse">
<stop stop-color="#F9EAC0"/>
<stop offset="1" stop-color="#C1A165"/>
</linearGradient>
<linearGradient id="paint2_linear_616_12554" x1="737.472" y1="456.859" x2="726.855" y2="639.943" gradientUnits="userSpaceOnUse">
<stop stop-color="#F9EAC0"/>
<stop offset="1" stop-color="#C1A165"/>
</linearGradient>
<linearGradient id="paint3_linear_616_12554" x1="737.472" y1="456.859" x2="726.855" y2="639.943" gradientUnits="userSpaceOnUse">
<stop stop-color="#F9EAC0"/>
<stop offset="1" stop-color="#C1A165"/>
</linearGradient>
<linearGradient id="paint4_linear_616_12554" x1="815.559" y1="649.165" x2="635.966" y2="691.597" gradientUnits="userSpaceOnUse">
<stop stop-color="#F9EAC0"/>
<stop offset="1" stop-color="#C1A165"/>
</linearGradient>
<linearGradient id="paint5_linear_616_12554" x1="815.559" y1="649.165" x2="635.966" y2="691.597" gradientUnits="userSpaceOnUse">
<stop stop-color="#F9EAC0"/>
<stop offset="1" stop-color="#C1A165"/>
</linearGradient>
<linearGradient id="paint6_linear_616_12554" x1="657.912" y1="784.999" x2="555.347" y2="630.8" gradientUnits="userSpaceOnUse">
<stop stop-color="#F9EAC0"/>
<stop offset="1" stop-color="#C1A165"/>
</linearGradient>
<linearGradient id="paint7_linear_616_12554" x1="657.912" y1="784.999" x2="555.347" y2="630.8" gradientUnits="userSpaceOnUse">
<stop stop-color="#F9EAC0"/>
<stop offset="1" stop-color="#C1A165"/>
</linearGradient>
<linearGradient id="paint8_linear_616_12554" x1="484.009" y1="677.446" x2="596.223" y2="532.103" gradientUnits="userSpaceOnUse">
<stop stop-color="#F9EAC0"/>
<stop offset="1" stop-color="#C1A165"/>
</linearGradient>
<linearGradient id="paint9_linear_616_12554" x1="484.009" y1="677.446" x2="596.223" y2="532.103" gradientUnits="userSpaceOnUse">
<stop stop-color="#F9EAC0"/>
<stop offset="1" stop-color="#C1A165"/>
</linearGradient>
<linearGradient id="paint10_linear_616_12554" x1="488.06" y1="428.853" x2="838.585" y2="774.604" gradientUnits="userSpaceOnUse">
<stop stop-color="#F9EAC0"/>
<stop offset="1" stop-color="#C1A165"/>
</linearGradient>
<linearGradient id="paint11_linear_616_12554" x1="627.357" y1="588.481" x2="666.756" y2="627.343" gradientUnits="userSpaceOnUse">
<stop stop-color="#F9EAC0"/>
<stop offset="1" stop-color="#C1A165"/>
</linearGradient>
<linearGradient id="paint12_linear_616_12554" x1="615.755" y1="571.691" x2="629.686" y2="585.432" gradientUnits="userSpaceOnUse">
<stop stop-color="#F9EAC0"/>
<stop offset="1" stop-color="#C1A165"/>
</linearGradient>
<linearGradient id="paint13_linear_616_12554" x1="660.513" y1="567.988" x2="674.444" y2="581.73" gradientUnits="userSpaceOnUse">
<stop stop-color="#F9EAC0"/>
<stop offset="1" stop-color="#C1A165"/>
</linearGradient>
<linearGradient id="paint14_linear_616_12554" x1="675.595" y1="610.951" x2="689.526" y2="624.693" gradientUnits="userSpaceOnUse">
<stop stop-color="#F9EAC0"/>
<stop offset="1" stop-color="#C1A165"/>
</linearGradient>
<linearGradient id="paint15_linear_616_12554" x1="638.657" y1="638.761" x2="652.589" y2="652.503" gradientUnits="userSpaceOnUse">
<stop stop-color="#F9EAC0"/>
<stop offset="1" stop-color="#C1A165"/>
</linearGradient>
<linearGradient id="paint16_linear_616_12554" x1="602.911" y1="613.122" x2="616.843" y2="626.864" gradientUnits="userSpaceOnUse">
<stop stop-color="#F9EAC0"/>
<stop offset="1" stop-color="#C1A165"/>
</linearGradient>
<linearGradient id="paint17_linear_616_12554" x1="451.567" y1="393.696" x2="963.921" y2="836.07" gradientUnits="userSpaceOnUse">
<stop stop-color="#F9EAC0"/>
<stop offset="1" stop-color="#C1A165"/>
</linearGradient>
</defs>
</svg>