<svg width="1295" height="369" viewBox="0 0 1295 369" fill="none" xmlns="http://www.w3.org/2000/svg">
<path d="M789.735 104.119L759.245 88.8378C758.733 88.581 758.609 87.9047 758.997 87.483L761.692 84.5563C761.941 84.2861 762.334 84.2032 762.671 84.3498L791.264 96.7987C794.306 98.3927 796.822 96.2446 797.7 94.9713L823.208 60.4992C823.373 60.2756 823.636 60.1456 823.915 60.15L828.187 60.2181C828.864 60.2289 829.269 60.9731 828.902 61.5417C822.835 70.9429 811.59 88.4529 809.196 92.5174C806.686 96.7775 808.564 103.172 809.816 105.837L829.917 137.004C831.775 140.922 829.053 140.071 827.384 139.118C827.329 139.086 827.279 139.049 827.233 139.005L789.936 104.259C789.876 104.203 789.808 104.156 789.735 104.119Z" fill="url(#paint0_linear_694_1041)" stroke="url(#paint1_linear_694_1041)" stroke-width="2.58662"/>
<path d="M871.327 107.144L876.58 73.6093C876.669 73.0407 877.28 72.7173 877.8 72.9632L881.388 74.658C881.718 74.814 881.915 75.1613 881.878 75.5248L878.735 106.43C878.145 109.797 880.945 111.556 882.419 112.014L922.851 126.073C923.112 126.164 923.314 126.374 923.393 126.639L924.62 130.715C924.816 131.366 924.226 131.979 923.571 131.797C912.811 128.808 892.81 123.301 888.231 122.228C883.429 121.102 877.932 124.784 875.784 126.766L852.312 155.136C849.16 158.065 849.142 155.223 849.54 153.353C849.553 153.29 849.574 153.231 849.601 153.173L871.255 107.379C871.29 107.304 871.315 107.225 871.327 107.144Z" fill="url(#paint2_linear_694_1041)" stroke="url(#paint3_linear_694_1041)" stroke-width="2.58662"/>
<path d="M892.884 185.392L926.217 180.186C926.788 180.097 927.284 180.585 927.204 181.158L926.655 185.074C926.604 185.433 926.335 185.723 925.98 185.798L895.742 192.212C892.375 192.676 891.533 195.87 891.533 197.41L890.113 240.194C890.106 240.411 890.017 240.617 889.865 240.771L886.184 244.504C885.651 245.044 884.732 244.686 884.71 243.928C884.388 232.507 883.887 210.652 883.56 206.037C883.212 201.133 878.1 197.032 875.587 195.594L841.765 181.926C838.059 179.823 840.747 178.941 842.638 178.75C842.702 178.743 842.765 178.745 842.829 178.753L892.637 185.395C892.719 185.406 892.802 185.405 892.884 185.392Z" fill="url(#paint4_linear_694_1041)" stroke="url(#paint5_linear_694_1041)" stroke-width="2.58662"/>
<path d="M825.077 230.827L840.633 261.496C840.89 262.004 840.594 262.617 840.036 262.731L836.12 263.528C835.757 263.602 835.386 263.436 835.201 263.114L819.509 235.917C818 232.803 814.698 233.067 813.236 233.588L772.254 246.666C771.985 246.751 771.693 246.701 771.469 246.53L768.048 243.923C767.513 243.515 767.623 242.682 768.249 242.437C778.704 238.343 798.169 230.672 802.51 228.764C807.057 226.765 809.329 220.41 809.896 217.482L812.137 179.994C812.958 175.679 814.651 177.997 815.432 179.77C815.457 179.827 815.475 179.887 815.487 179.949L824.999 230.596C825.014 230.676 825.04 230.754 825.077 230.827Z" fill="url(#paint6_linear_694_1041)" stroke="url(#paint7_linear_694_1041)" stroke-width="2.58662"/>
<path d="M762.658 180.81L739.298 205.513C738.903 205.93 738.218 205.852 737.928 205.356L735.921 201.928C735.736 201.613 735.771 201.214 736.008 200.935L756.129 177.213C758.526 174.768 757.208 171.735 756.249 170.524L730.792 136.077C730.628 135.854 730.58 135.566 730.664 135.302L731.962 131.242C732.169 130.595 733.001 130.424 733.438 130.943C740.639 139.488 754.057 155.339 757.235 158.813C760.567 162.455 767.199 162.523 770.099 162.102L805.591 151.959C809.858 151.324 808.261 153.679 806.872 154.997C806.826 155.041 806.775 155.079 806.72 155.111L762.851 180.657C762.78 180.699 762.715 180.75 762.658 180.81Z" fill="url(#paint8_linear_694_1041)" stroke="url(#paint9_linear_694_1041)" stroke-width="2.58662"/>
<circle cx="828.425" cy="162.139" r="101.688" transform="rotate(-23.466 828.425 162.139)" stroke="url(#paint10_linear_694_1041)" stroke-width="3.87993"/>
<circle cx="828.42" cy="162.14" r="11.6478" transform="rotate(-23.466 828.42 162.14)" fill="url(#paint11_linear_694_1041)"/>
<circle cx="828.382" cy="162.158" r="7.32876" transform="rotate(-23.466 828.382 162.158)" fill="#AD8847" stroke="#F8EABF" stroke-width="0.431104"/>
<circle cx="815.164" cy="144.936" r="3.47198" transform="rotate(-23.466 815.164 144.936)" stroke="url(#paint12_linear_694_1041)" stroke-width="1.29331"/>
<circle cx="840.953" cy="142.802" r="3.47198" transform="rotate(-23.466 840.953 142.802)" stroke="url(#paint13_linear_694_1041)" stroke-width="1.29331"/>
<circle cx="849.645" cy="167.559" r="3.47198" transform="rotate(-23.466 849.645 167.559)" stroke="url(#paint14_linear_694_1041)" stroke-width="1.29331"/>
<circle cx="828.359" cy="183.584" r="3.47198" transform="rotate(-23.466 828.359 183.584)" stroke="url(#paint15_linear_694_1041)" stroke-width="1.29331"/>
<circle cx="807.762" cy="168.81" r="3.47198" transform="rotate(-23.466 807.762 168.81)" stroke="url(#paint16_linear_694_1041)" stroke-width="1.29331"/>
<path d="M1200.51 46.2649L1202.59 76.8889L1197.37 67.1449C1195.52 63.8969 1192.97 61.3449 1189.72 59.4889C1186.7 57.4009 1183.22 56.3569 1179.28 56.3569H1105.15V267.941C1105.15 272.349 1106.31 276.293 1108.63 279.773C1111.19 283.253 1114.43 285.805 1118.38 287.429L1123.95 289.517H1067.22L1072.79 287.429C1076.73 285.805 1079.87 283.253 1082.19 279.773C1084.74 276.293 1086.01 272.349 1086.01 267.941V56.3569H1011.89C1007.95 56.3569 1004.35 57.4009 1001.1 59.4889C998.086 61.3449 995.65 63.8969 993.794 67.1449L988.574 76.8889L990.662 46.2649H1200.51Z" fill="url(#paint17_linear_694_1041)"/>
<path d="M654.448 265.853L665.236 248.105L654.1 288.821H497.5L503.068 286.733C507.012 285.109 510.144 282.557 512.464 279.077C515.016 275.597 516.292 271.653 516.292 267.245V67.1446C516.292 62.7366 515.016 58.7926 512.464 55.3126C510.144 51.8326 507.012 49.2806 503.068 47.6566L497.5 45.5686H647.488L649.576 76.1926L644.356 66.4486C642.5 63.2006 639.948 60.6486 636.7 58.7926C633.684 56.7046 630.204 55.6606 626.26 55.6606H535.084V159.017H593.2C597.376 159.017 601.088 157.973 604.336 155.885C607.816 153.565 610.484 150.549 612.34 146.837L614.428 141.965V183.725L612.34 178.853C610.484 175.141 607.816 172.241 604.336 170.153C601.088 167.833 597.376 166.673 593.2 166.673H535.084V279.773H628.348C633.684 279.773 638.556 278.613 642.964 276.293C647.604 273.741 651.432 270.261 654.448 265.853Z" fill="url(#paint18_linear_694_1041)"/>
<path d="M451.901 265.853L462.341 248.801L451.205 289.517H294.605L300.173 287.429C304.117 285.805 307.249 283.253 309.569 279.773C312.121 276.293 313.397 272.349 313.397 267.941V67.8409C313.397 63.4329 312.121 59.4889 309.569 56.0089C307.249 52.5289 304.117 49.9769 300.173 48.3529L294.605 46.2649H351.329L345.761 48.3529C341.817 49.9769 338.569 52.5289 336.017 56.0089C333.697 59.4889 332.537 63.4329 332.537 67.8409V279.773H425.801C431.137 279.773 436.009 278.613 440.417 276.293C445.057 273.741 448.885 270.261 451.901 265.853Z" fill="url(#paint19_linear_694_1041)"/>
<path d="M249.354 265.853L260.142 248.105L249.006 288.821H92.4062L97.9743 286.733C101.918 285.109 105.05 282.557 107.37 279.077C109.922 275.597 111.198 271.653 111.198 267.245V67.1446C111.198 62.7366 109.922 58.7926 107.37 55.3126C105.05 51.8326 101.918 49.2806 97.9743 47.6566L92.4062 45.5686H242.394L244.482 76.1926L239.262 66.4486C237.406 63.2006 234.854 60.6486 231.606 58.7926C228.59 56.7046 225.11 55.6606 221.166 55.6606H129.99V159.017H188.106C192.282 159.017 195.994 157.973 199.242 155.885C202.722 153.565 205.39 150.549 207.246 146.837L209.334 141.965V183.725L207.246 178.853C205.39 175.141 202.722 172.241 199.242 170.153C195.994 167.833 192.282 166.673 188.106 166.673H129.99V279.773H223.254C228.59 279.773 233.462 278.613 237.87 276.293C242.51 273.741 246.338 270.261 249.354 265.853Z" fill="url(#paint20_linear_694_1041)"/>
<path d="M830.184 38.2522C847.078 38.2522 863.259 40.9892 878.727 46.4622C894.432 51.6972 908.353 59.6682 920.488 70.3762C932.624 80.8463 942.261 93.8153 949.399 109.282C956.776 124.75 960.465 142.715 960.465 163.179C960.465 176.266 958.918 188.402 955.824 199.586C952.731 210.77 948.448 220.884 942.975 229.926C937.502 238.968 930.839 247.059 922.986 254.198C915.474 261.005 907.266 266.884 898.364 271.839C898.362 271.841 898.361 271.844 898.358 271.846L898.339 271.854C898.226 271.917 898.114 271.982 898.001 272.044L898.025 271.987L880.154 279.54C864.449 285.251 847.792 288.107 830.184 288.107C823.155 288.107 816.211 287.638 809.352 286.706L856.145 305.229C869.485 310.11 881.254 313.688 891.449 315.966C901.753 318.244 910.864 319.383 918.782 319.383C930.171 319.383 945.031 316.509 963.361 310.76L967.916 320.197C947.742 331.151 934.292 337.93 927.567 340.533C920.951 343.136 915.42 344.438 910.973 344.438C900.886 344.438 890.527 342.486 879.897 338.581C861.133 331.531 836.946 319.166 807.336 301.487C790.524 291.399 777.128 284.566 767.149 280.987C757.279 277.407 744.047 274.479 727.452 272.201V259.673C733.96 260.432 740.901 261.735 748.276 263.578L750.078 264.256C746.549 261.798 743.149 259.16 739.88 256.339C727.744 245.631 717.987 232.544 710.61 217.076C703.472 201.371 699.902 183.405 699.902 163.179C699.902 142.715 703.472 124.749 710.61 109.282C717.987 93.8153 727.744 80.8463 739.88 70.3762C752.016 59.6684 765.936 51.6971 781.641 46.4622C797.346 40.9892 813.527 38.2522 830.184 38.2522ZM828.028 52.2405C767.345 52.2405 718.152 101.434 718.152 162.116C718.152 222.799 767.345 271.992 828.028 271.992C888.711 271.992 937.904 222.799 937.904 162.116C937.904 101.434 888.711 52.2405 828.028 52.2405Z" fill="url(#paint21_linear_694_1041)"/>
<defs>
<linearGradient id="paint0_linear_694_1041" x1="761.78" y1="84.2471" x2="861.044" y2="121.59" gradientUnits="userSpaceOnUse">
<stop stop-color="#F9EAC0"/>
<stop offset="1" stop-color="#C1A165"/>
</linearGradient>
<linearGradient id="paint1_linear_694_1041" x1="761.78" y1="84.2471" x2="861.044" y2="121.59" gradientUnits="userSpaceOnUse">
<stop stop-color="#F9EAC0"/>
<stop offset="1" stop-color="#C1A165"/>
</linearGradient>
<linearGradient id="paint2_linear_694_1041" x1="881.705" y1="74.6486" x2="875.587" y2="180.146" gradientUnits="userSpaceOnUse">
<stop stop-color="#F9EAC0"/>
<stop offset="1" stop-color="#C1A165"/>
</linearGradient>
<linearGradient id="paint3_linear_694_1041" x1="881.705" y1="74.6486" x2="875.587" y2="180.146" gradientUnits="userSpaceOnUse">
<stop stop-color="#F9EAC0"/>
<stop offset="1" stop-color="#C1A165"/>
</linearGradient>
<linearGradient id="paint4_linear_694_1041" x1="926.701" y1="185.459" x2="823.216" y2="209.91" gradientUnits="userSpaceOnUse">
<stop stop-color="#F9EAC0"/>
<stop offset="1" stop-color="#C1A165"/>
</linearGradient>
<linearGradient id="paint5_linear_694_1041" x1="926.701" y1="185.459" x2="823.216" y2="209.91" gradientUnits="userSpaceOnUse">
<stop stop-color="#F9EAC0"/>
<stop offset="1" stop-color="#C1A165"/>
</linearGradient>
<linearGradient id="paint6_linear_694_1041" x1="835.86" y1="263.731" x2="776.76" y2="174.877" gradientUnits="userSpaceOnUse">
<stop stop-color="#F9EAC0"/>
<stop offset="1" stop-color="#C1A165"/>
</linearGradient>
<linearGradient id="paint7_linear_694_1041" x1="835.86" y1="263.731" x2="776.76" y2="174.877" gradientUnits="userSpaceOnUse">
<stop stop-color="#F9EAC0"/>
<stop offset="1" stop-color="#C1A165"/>
</linearGradient>
<linearGradient id="paint8_linear_694_1041" x1="735.653" y1="201.756" x2="800.314" y2="118.006" gradientUnits="userSpaceOnUse">
<stop stop-color="#F9EAC0"/>
<stop offset="1" stop-color="#C1A165"/>
</linearGradient>
<linearGradient id="paint9_linear_694_1041" x1="735.653" y1="201.756" x2="800.314" y2="118.006" gradientUnits="userSpaceOnUse">
<stop stop-color="#F9EAC0"/>
<stop offset="1" stop-color="#C1A165"/>
</linearGradient>
<linearGradient id="paint10_linear_694_1041" x1="737.989" y1="58.5108" x2="939.97" y2="257.741" gradientUnits="userSpaceOnUse">
<stop stop-color="#F9EAC0"/>
<stop offset="1" stop-color="#C1A165"/>
</linearGradient>
<linearGradient id="paint11_linear_694_1041" x1="818.255" y1="150.492" x2="840.958" y2="172.885" gradientUnits="userSpaceOnUse">
<stop stop-color="#F9EAC0"/>
<stop offset="1" stop-color="#C1A165"/>
</linearGradient>
<linearGradient id="paint12_linear_694_1041" x1="811.57" y1="140.817" x2="819.598" y2="148.735" gradientUnits="userSpaceOnUse">
<stop stop-color="#F9EAC0"/>
<stop offset="1" stop-color="#C1A165"/>
</linearGradient>
<linearGradient id="paint13_linear_694_1041" x1="837.359" y1="138.683" x2="845.387" y2="146.602" gradientUnits="userSpaceOnUse">
<stop stop-color="#F9EAC0"/>
<stop offset="1" stop-color="#C1A165"/>
</linearGradient>
<linearGradient id="paint14_linear_694_1041" x1="846.05" y1="163.44" x2="854.078" y2="171.358" gradientUnits="userSpaceOnUse">
<stop stop-color="#F9EAC0"/>
<stop offset="1" stop-color="#C1A165"/>
</linearGradient>
<linearGradient id="paint15_linear_694_1041" x1="824.765" y1="179.465" x2="832.793" y2="187.383" gradientUnits="userSpaceOnUse">
<stop stop-color="#F9EAC0"/>
<stop offset="1" stop-color="#C1A165"/>
</linearGradient>
<linearGradient id="paint16_linear_694_1041" x1="804.168" y1="164.691" x2="812.195" y2="172.609" gradientUnits="userSpaceOnUse">
<stop stop-color="#F9EAC0"/>
<stop offset="1" stop-color="#C1A165"/>
</linearGradient>
<linearGradient id="paint17_linear_694_1041" x1="1002.2" y1="46.2649" x2="1236.92" y2="249.966" gradientUnits="userSpaceOnUse">
<stop stop-color="#F9EAC0"/>
<stop offset="1" stop-color="#C1A165"/>
</linearGradient>
<linearGradient id="paint18_linear_694_1041" x1="508.177" y1="45.5686" x2="728.678" y2="195.546" gradientUnits="userSpaceOnUse">
<stop stop-color="#F9EAC0"/>
<stop offset="1" stop-color="#C1A165"/>
</linearGradient>
<linearGradient id="paint19_linear_694_1041" x1="305.282" y1="46.2649" x2="525.784" y2="196.242" gradientUnits="userSpaceOnUse">
<stop stop-color="#F9EAC0"/>
<stop offset="1" stop-color="#C1A165"/>
</linearGradient>
<linearGradient id="paint20_linear_694_1041" x1="103.083" y1="45.5686" x2="323.584" y2="195.546" gradientUnits="userSpaceOnUse">
<stop stop-color="#F9EAC0"/>
<stop offset="1" stop-color="#C1A165"/>
</linearGradient>
<linearGradient id="paint21_linear_694_1041" x1="716.962" y1="38.2522" x2="1012.19" y2="293.157" gradientUnits="userSpaceOnUse">
<stop stop-color="#F9EAC0"/>
<stop offset="1" stop-color="#C1A165"/>
</linearGradient>
</defs>
</svg>
