<svg width="46" height="46" viewBox="0 0 46 46" fill="none" xmlns="http://www.w3.org/2000/svg">
<path d="M14.1191 17.7227L9.29395 22.5488L4.46777 17.7227L9.29395 12.8975L14.1191 17.7227ZM22.2998 9.54297L17.4736 14.3682L12.6484 9.54297L17.4736 4.7168L22.2998 9.54297Z" fill="url(#paint0_linear_486_2289)" stroke="url(#paint1_linear_486_2289)" stroke-width="0.5"/>
<path d="M16.0566 1.08887C16.8464 0.299125 18.1077 0.299125 18.8975 1.08887V1.08789L31.04 13.2471L31.2168 13.4238L31.5205 13.1201C31.7288 12.9162 32.0083 12.8001 32.2998 12.7969C32.5911 12.7937 32.8723 12.9034 33.085 13.1025L34.4883 14.5059C34.8867 14.9046 34.9044 15.517 34.5957 15.9482L34.5879 15.959L34.583 15.9668L34.3613 16.2656L34.2324 16.4385L34.3848 16.5918L44.3232 26.5303C45.113 27.32 45.113 28.5814 44.3232 29.3711L29.1094 44.5859C28.3196 45.3757 27.0573 45.3757 26.2676 44.5859L18.8945 37.2129L18.7207 37.4326C18.6235 37.5551 18.5011 37.6556 18.3623 37.7275C18.2236 37.7994 18.0711 37.8407 17.915 37.8496C17.7589 37.8584 17.6022 37.8342 17.4561 37.7783C17.31 37.7224 17.1778 37.6361 17.0674 37.5254H17.0664L12.8721 33.3301C12.6694 33.122 12.554 32.8442 12.5508 32.5537C12.5476 32.2624 12.6564 31.9803 12.8555 31.7676L12.8564 31.7686L12.8643 31.7598L12.8682 31.7539L12.9834 31.6406L13.1631 31.4639L12.9844 31.2861L0.842773 19.1436C0.0530312 18.3538 0.0530312 17.0925 0.842773 16.3027L16.0566 1.08887ZM32.1357 14.0811L13.835 32.3643L13.6582 32.541L13.835 32.7178L17.6455 36.5303L17.8506 36.7354L18.0234 36.502L33.5703 15.4629L33.6982 15.29L32.3125 13.9043L32.1357 14.0811ZM17.9873 19.4053C17.8256 19.4053 17.6654 19.4377 17.5166 19.501C17.3695 19.5636 17.2364 19.6549 17.125 19.7695L11.3408 25.5537L11.332 25.5615C10.8439 26.0334 10.8507 26.8056 11.332 27.2871L14.1592 30.1133L14.3359 30.29L14.5127 30.1133L15.5068 29.1201L15.6836 28.9424L15.5059 28.7656L13.1514 26.4189L17.9912 21.5928L20.3389 23.9395L20.5156 24.1152L20.6924 23.9395L21.6797 22.9531L21.8564 22.7764L18.8496 19.7695H18.8486C18.7373 19.655 18.6041 19.5635 18.457 19.501C18.3084 19.4378 18.1488 19.4053 17.9873 19.4053ZM9.30371 10.7119C9.14205 10.7119 8.98177 10.7443 8.83301 10.8076C8.68431 10.8709 8.54959 10.9637 8.4375 11.0801L2.65332 16.8652C2.16127 17.3368 2.1667 18.111 2.64941 18.5938L8.4248 24.3701C8.90628 24.8516 9.67753 24.8574 10.1494 24.3691L10.1504 24.3701L15.9209 18.5977L15.9219 18.5986C16.0407 18.4855 16.1349 18.3486 16.1982 18.1973C16.2285 18.1251 16.2502 18.0499 16.2656 17.9736H16.3057V17.7236C16.3057 17.3993 16.183 17.0931 15.9424 16.8525L10.1689 11.0801H10.1699C10.0578 10.9637 9.92311 10.8709 9.77441 10.8076C9.62565 10.7443 9.46537 10.7119 9.30371 10.7119ZM26.1738 11.2197C26.0122 11.2197 25.8519 11.2531 25.7031 11.3164C25.5558 11.3791 25.422 11.47 25.3105 11.585L19.5352 17.3604C19.4204 17.4744 19.3298 17.6104 19.2676 17.7598C19.2054 17.9092 19.1729 18.0695 19.1729 18.2314C19.1729 18.3934 19.2054 18.5536 19.2676 18.7031C19.3142 18.8152 19.3771 18.9194 19.4541 19.0127L19.5352 19.1025L22.5332 22.1006L23.8711 20.7627L21.3457 18.2373L26.1709 13.3965L28.5264 15.7588L28.7031 15.9365L28.8799 15.7588L29.8672 14.7695L30.0439 14.5928L29.8672 14.417L27.0361 11.585C26.9247 11.4701 26.7909 11.3791 26.6436 11.3164C26.4949 11.2532 26.3353 11.2198 26.1738 11.2197ZM17.4756 2.53418C17.3136 2.53418 17.1534 2.56658 17.0039 2.62891C16.8917 2.6757 16.7866 2.73821 16.6934 2.81543L16.6045 2.89746L10.833 8.68555C10.3411 9.1571 10.3464 9.93138 10.8291 10.4141L16.6055 16.1895C17.0865 16.6704 17.857 16.6776 18.3291 16.1729L18.3301 16.1738L24.1064 10.3975L24.1055 10.3965C24.2195 10.2867 24.3116 10.1563 24.374 10.0107C24.4041 9.94051 24.4264 9.86728 24.4424 9.79297H24.4854V9.54297C24.4853 9.23708 24.3641 8.91486 24.1221 8.67285L18.3457 2.89648C18.232 2.7819 18.0963 2.69108 17.9473 2.62891C17.7978 2.56658 17.6375 2.53418 17.4756 2.53418Z" fill="url(#paint2_linear_486_2289)" stroke="url(#paint3_linear_486_2289)" stroke-width="0.5"/>
<defs>
<linearGradient id="paint0_linear_486_2289" x1="5.29521" y1="4.36426" x2="23.3614" y2="22.1844" gradientUnits="userSpaceOnUse">
<stop stop-color="#F9EAC0"/>
<stop offset="1" stop-color="#C1A165"/>
</linearGradient>
<linearGradient id="paint1_linear_486_2289" x1="4.11523" y1="4.36426" x2="23.3592" y2="22.1379" gradientUnits="userSpaceOnUse">
<stop stop-color="#FFE3E5"/>
<stop offset="1" stop-color="#BB878B"/>
</linearGradient>
<linearGradient id="paint2_linear_486_2289" x1="2.87487" y1="0.246093" x2="46.9065" y2="43.6625" gradientUnits="userSpaceOnUse">
<stop stop-color="#F9EAC0"/>
<stop offset="1" stop-color="#C1A165"/>
</linearGradient>
<linearGradient id="paint3_linear_486_2289" x1="0" y1="0.246094" x2="46.9011" y2="43.5483" gradientUnits="userSpaceOnUse">
<stop stop-color="#FFE3E5"/>
<stop offset="1" stop-color="#BB878B"/>
</linearGradient>
</defs>
</svg>
