<svg width="46" height="46" viewBox="0 0 46 46" fill="none" xmlns="http://www.w3.org/2000/svg">
<path d="M45 1.24609L25.4444 22.0239ZM16.7569 21.0094C10.6947 23.3365 5.84733 22.9381 1 21.0168C2.22222 36.7663 9.56533 42.8212 19.3553 45.2461C19.3553 45.2461 26.7302 40.0296 27.7936 27.6632C27.9084 26.3236 27.9647 25.6563 27.6884 24.901C27.4098 24.1456 26.8622 23.6054 25.7696 22.5225C23.9704 20.743 23.0733 19.8532 22.0051 19.6283C20.9369 19.4083 19.5436 19.9412 16.7569 21.0094Z" fill="url(#paint0_linear_486_2278)"/>
<path d="M45 1.24609L25.4444 22.0239M16.7569 21.0094C10.6947 23.3365 5.84733 22.9381 1 21.0168C2.22222 36.7663 9.56533 42.8212 19.3553 45.2461C19.3553 45.2461 26.7302 40.0296 27.7936 27.6632C27.9084 26.3236 27.9647 25.6563 27.6884 24.901C27.4098 24.1456 26.8622 23.6054 25.7696 22.5225C23.9704 20.743 23.0733 19.8532 22.0051 19.6283C20.9369 19.4083 19.5436 19.9412 16.7569 21.0094Z" stroke="url(#paint1_linear_486_2278)" stroke-width="1.5" stroke-linecap="round" stroke-linejoin="round"/>
<path d="M4.66602 34.114C4.66602 34.114 10.7771 35.2971 16.8882 30.5793ZM14.4438 11.6349C14.4438 12.4453 14.1219 13.2225 13.5488 13.7955C12.9758 14.3685 12.1986 14.6904 11.3882 14.6904C10.5779 14.6904 9.80066 14.3685 9.22763 13.7955C8.65461 13.2225 8.33268 12.4453 8.33268 11.6349C8.33268 10.8245 8.65461 10.0473 9.22763 9.47427C9.80066 8.90124 10.5779 8.57932 11.3882 8.57932C12.1986 8.57932 12.9758 8.90124 13.5488 9.47427C14.1219 10.0473 14.4438 10.8245 14.4438 11.6349ZM20.5549 3.69043V3.93487Z" fill="url(#paint2_linear_486_2278)"/>
<path d="M4.66602 34.114C4.66602 34.114 10.7771 35.2971 16.8882 30.5793M20.5549 3.69043V3.93487M14.4438 11.6349C14.4438 12.4453 14.1219 13.2225 13.5488 13.7955C12.9758 14.3685 12.1986 14.6904 11.3882 14.6904C10.5779 14.6904 9.80066 14.3685 9.22763 13.7955C8.65461 13.2225 8.33268 12.4453 8.33268 11.6349C8.33268 10.8245 8.65461 10.0473 9.22763 9.47427C9.80066 8.90124 10.5779 8.57932 11.3882 8.57932C12.1986 8.57932 12.9758 8.90124 13.5488 9.47427C14.1219 10.0473 14.4438 10.8245 14.4438 11.6349Z" stroke="url(#paint3_linear_486_2278)" stroke-width="1.5" stroke-linecap="round" stroke-linejoin="round"/>
<defs>
<linearGradient id="paint0_linear_486_2278" x1="3.80067" y1="1.24609" x2="46.6807" y2="43.5422" gradientUnits="userSpaceOnUse">
<stop stop-color="#F9EAC0"/>
<stop offset="1" stop-color="#C1A165"/>
</linearGradient>
<linearGradient id="paint1_linear_486_2278" x1="1" y1="1.24609" x2="46.6756" y2="43.4319" gradientUnits="userSpaceOnUse">
<stop stop-color="#FFE3E5"/>
<stop offset="1" stop-color="#BB878B"/>
</linearGradient>
<linearGradient id="paint2_linear_486_2278" x1="5.67737" y1="3.69043" x2="29.8642" y2="16.0963" gradientUnits="userSpaceOnUse">
<stop stop-color="#F9EAC0"/>
<stop offset="1" stop-color="#C1A165"/>
</linearGradient>
<linearGradient id="paint3_linear_486_2278" x1="4.66602" y1="3.69043" x2="29.5013" y2="15.6181" gradientUnits="userSpaceOnUse">
<stop stop-color="#FFE3E5"/>
<stop offset="1" stop-color="#BB878B"/>
</linearGradient>
</defs>
</svg>
