<svg width="45" height="46" viewBox="0 0 45 46" fill="none" xmlns="http://www.w3.org/2000/svg">
<path fill-rule="evenodd" clip-rule="evenodd" d="M1.24915 0.246094C1.58044 0.246094 1.89817 0.3777 2.13243 0.61196C2.36669 0.846221 2.49829 1.16395 2.49829 1.49524V10.0606C2.49829 10.7464 2.7856 11.4197 3.32523 11.9281C3.89313 12.4529 4.63929 12.7423 5.41255 12.7376H7.49488C7.82617 12.7376 8.1439 12.8692 8.37816 13.1034C8.61242 13.3377 8.74402 13.6554 8.74402 13.9867C8.74402 14.318 8.61242 14.6357 8.37816 14.87C8.1439 15.1042 7.82617 15.2358 7.49488 15.2358H5.41255C4.0021 15.2405 2.64287 14.7076 1.6114 13.7456C1.10572 13.2737 0.701913 12.7034 0.424798 12.0697C0.147683 11.436 0.00312111 10.7523 0 10.0606V1.49524C0 1.16395 0.131606 0.846221 0.365867 0.61196C0.600127 0.3777 0.917852 0.246094 1.24915 0.246094Z" fill="url(#paint0_linear_486_2297)"/>
<path d="M1.25 0.246094H43.721V7.74097C43.721 8.56117 43.5594 9.37334 43.2455 10.1311C42.9317 10.8889 42.4716 11.5774 41.8916 12.1574C41.3117 12.7373 40.6231 13.1974 39.8654 13.5113C39.1076 13.8252 38.2954 13.9867 37.4752 13.9867H36.2261V8.99012H8.74488V13.9867H7.49573C5.83926 13.9867 4.25063 13.3287 3.07933 12.1574C1.90803 10.9861 1.25 9.39744 1.25 7.74097V0.246094Z" fill="url(#paint1_linear_486_2297)"/>
<path fill-rule="evenodd" clip-rule="evenodd" d="M43.7195 0.246094C44.0508 0.246094 44.3685 0.3777 44.6028 0.61196C44.837 0.846221 44.9686 1.16395 44.9686 1.49524V10.0606C44.9663 10.7524 44.822 11.4363 44.5449 12.0701C44.2677 12.704 43.8635 13.2742 43.3572 13.7456C42.3258 14.7076 40.9665 15.2405 39.5561 15.2358H37.4738C37.1425 15.2358 36.8247 15.1042 36.5905 14.87C36.3562 14.6357 36.2246 14.318 36.2246 13.9867C36.2246 13.6554 36.3562 13.3377 36.5905 13.1034C36.8247 12.8692 37.1425 12.7376 37.4738 12.7376H39.5561C40.3289 12.742 41.0746 12.4526 41.6422 11.9281C42.1818 11.4197 42.4703 10.7464 42.4703 10.0606V1.49524C42.4703 1.16395 42.6019 0.846221 42.8362 0.61196C43.0705 0.3777 43.3882 0.246094 43.7195 0.246094Z" fill="url(#paint2_linear_486_2297)"/>
<path fill-rule="evenodd" clip-rule="evenodd" d="M6.24609 7.74133C6.24609 7.41004 6.3777 7.09231 6.61196 6.85805C6.84622 6.62379 7.16395 6.49219 7.49524 6.49219H37.4747C37.806 6.49219 38.1238 6.62379 38.358 6.85805C38.5923 7.09231 38.7239 7.41004 38.7239 7.74133V37.7208C38.7238 37.9337 38.6693 38.143 38.5656 38.3288C38.4619 38.5147 38.3124 38.671 38.1313 38.7829C37.9502 38.8947 37.7436 38.9585 37.531 38.9681C37.3183 38.9776 37.1068 38.9327 36.9164 38.8376L33.7273 37.2437L30.5382 38.8376C30.3649 38.9242 30.1737 38.9693 29.9799 38.9693C29.786 38.9693 29.5949 38.9242 29.4215 38.8376L26.2324 37.2437L23.0434 38.8376C22.8812 38.9186 22.7034 38.9634 22.5222 38.9688C22.341 38.9742 22.1608 38.94 21.9941 38.8688L18.3341 37.3011C18.181 37.2381 18.042 37.1452 17.9252 37.028C17.8083 36.9107 17.7159 36.7714 17.6534 36.6182C17.5908 36.4649 17.5593 36.3007 17.5608 36.1352C17.5622 35.9697 17.5966 35.8061 17.6618 35.6539C17.727 35.5018 17.8219 35.3641 17.9408 35.249C18.0596 35.1338 18.2003 35.0434 18.3544 34.983C18.5085 34.9227 18.6731 34.8935 18.8386 34.8973C19.0041 34.9011 19.1672 34.9378 19.3184 35.0052L22.445 36.3443L25.6741 34.7304C25.8474 34.6437 26.0386 34.5986 26.2324 34.5986C26.4263 34.5986 26.6174 34.6437 26.7908 34.7304L29.9799 36.3243L33.1689 34.7304C33.3423 34.6437 33.5335 34.5986 33.7273 34.5986C33.9211 34.5986 34.1123 34.6437 34.2857 34.7304L36.2256 35.6997V8.99048H8.74439V28.9768C8.74439 29.3081 8.61278 29.6258 8.37852 29.8601C8.14426 30.0944 7.82653 30.226 7.49524 30.226C7.16395 30.226 6.84622 30.0944 6.61196 29.8601C6.3777 29.6258 6.24609 29.3081 6.24609 28.9768V7.74133Z" fill="url(#paint3_linear_486_2297)"/>
<path fill-rule="evenodd" clip-rule="evenodd" d="M8.55415 22.0685C8.72985 22.3493 8.78684 22.6883 8.71258 23.0111C8.63833 23.3339 8.4389 23.614 8.15817 23.7898L6.54678 24.7979C5.31296 25.5618 4.28869 26.6209 3.56631 27.8795C2.86905 29.0951 2.50093 30.4716 2.49829 31.873V43.966C2.49829 44.2973 2.36669 44.615 2.13243 44.8493C1.89817 45.0836 1.58044 45.2152 1.24915 45.2152C0.917852 45.2152 0.600127 45.0836 0.365867 44.8493C0.131606 44.615 0 44.2973 0 43.966V31.873C0.00234049 30.0376 0.483261 28.2344 1.3953 26.6416C2.32237 25.0251 3.63674 23.6643 5.22018 22.6818L6.83158 21.6713C6.97066 21.5841 7.12556 21.5251 7.28743 21.4978C7.4493 21.4706 7.61496 21.4754 7.77494 21.5122C7.93492 21.549 8.08608 21.6169 8.21978 21.7122C8.35349 21.8074 8.46711 21.9293 8.55415 22.0685ZM19.0307 31.5757C19.3161 31.0497 19.3819 30.4322 19.2138 29.8579C19.0457 29.2835 18.6573 28.7989 18.1334 28.5098C17.6095 28.2206 16.9924 28.1503 16.4169 28.3142C15.8413 28.4781 15.3539 28.8629 15.061 29.3847L10.4691 37.5479L8.29183 36.3237L12.8837 28.1606C13.4966 27.0581 14.5215 26.2435 15.734 25.8955C16.9464 25.5474 18.2474 25.6943 19.3517 26.3038C20.456 26.9133 21.2737 27.9359 21.6254 29.1472C21.9771 30.3586 21.8342 31.66 21.228 32.7662L14.8386 44.5606C14.7632 44.7096 14.6588 44.842 14.5313 44.9499C14.4039 45.0578 14.2562 45.1391 14.0968 45.189C13.9374 45.2388 13.7697 45.2562 13.6035 45.2401C13.4373 45.224 13.276 45.1747 13.1291 45.0952C12.9823 45.0157 12.8529 44.9075 12.7486 44.7771C12.6443 44.6468 12.5671 44.4968 12.5218 44.3361C12.4764 44.1754 12.4638 44.0072 12.4845 43.8415C12.5053 43.6758 12.559 43.516 12.6426 43.3714L19.0307 31.5757Z" fill="url(#paint4_linear_486_2297)"/>
<defs>
<linearGradient id="paint0_linear_486_2297" x1="0.556572" y1="0.246093" x2="13.1873" y2="7.51366" gradientUnits="userSpaceOnUse">
<stop stop-color="#F9EAC0"/>
<stop offset="1" stop-color="#C1A165"/>
</linearGradient>
<linearGradient id="paint1_linear_486_2297" x1="3.95335" y1="0.246093" x2="11.8852" y2="24.4287" gradientUnits="userSpaceOnUse">
<stop stop-color="#F9EAC0"/>
<stop offset="1" stop-color="#C1A165"/>
</linearGradient>
<linearGradient id="paint2_linear_486_2297" x1="36.7812" y1="0.246093" x2="49.4119" y2="7.51366" gradientUnits="userSpaceOnUse">
<stop stop-color="#F9EAC0"/>
<stop offset="1" stop-color="#C1A165"/>
</linearGradient>
<linearGradient id="paint3_linear_486_2297" x1="8.31336" y1="6.49219" x2="39.9639" y2="37.7123" gradientUnits="userSpaceOnUse">
<stop stop-color="#F9EAC0"/>
<stop offset="1" stop-color="#C1A165"/>
</linearGradient>
<linearGradient id="paint4_linear_486_2297" x1="1.38852" y1="21.4805" x2="24.4373" y2="42.3489" gradientUnits="userSpaceOnUse">
<stop stop-color="#F9EAC0"/>
<stop offset="1" stop-color="#C1A165"/>
</linearGradient>
</defs>
</svg>
