<svg width="1124" height="93" viewBox="0 0 1124 93" fill="none" xmlns="http://www.w3.org/2000/svg">
<path d="M633.091 44.7365C656.796 45.069 675.458 43.6001 704.352 43.8078C733.245 44.0155 737.572 44.7947 770.662 44.6193C803.75 44.444 836.858 44.9767 851.592 44.6564C866.324 44.3361 867.879 45.3051 888.801 45.09C909.721 44.875 922.401 45.0008 940.698 45.3156C958.996 45.6304 1015.21 45.8996 1035.65 45.5129C1056.09 45.1262 1079.41 45.7971 1093.43 45.9563C1097.8 46.0058 1101.23 46.0741 1103.87 46.1447C1104.98 46.1746 1105.5 46.2373 1105.5 46.299C1105.5 46.3758 1104.7 46.4514 1103.27 46.4611C1096.3 46.5083 1085.89 46.6323 1073.6 46.9113C1050.67 47.4316 1048.17 46.8569 1017.21 47.1242C986.254 47.3916 967.655 47.9259 931.23 47.5803C894.806 47.2347 886.439 48.6812 835.022 47.8615C783.608 47.0419 778.196 48.5549 726.959 48.7561C677.216 48.9513 614.806 48.1721 582.945 48.1896C583.092 47.3689 583.167 46.5034 583.167 45.593C583.167 45.0643 583.142 44.552 583.094 44.0559C609.362 43.8528 610.253 44.4162 633.091 44.7365ZM338.476 44.1721C360.439 44.0737 406.3 44.5349 442.095 44.3684C470.378 44.2368 521.747 44.3035 556.531 44.2033C556.493 44.6534 556.474 45.1165 556.474 45.593C556.474 46.5258 556.548 47.412 556.696 48.2512C529.616 48.3222 497.481 48.3902 464.001 48.2375C420.215 48.0379 366.163 48.5419 317.831 48.1857C269.499 47.8296 201.167 47.3798 169.599 47.0783C138.032 46.7769 130.338 46.7086 99.9531 46.8928C82.4876 46.9986 58.4267 46.8993 38.1035 46.51C27.8761 46.314 30.1938 46.0409 40.4883 45.9104C55.5424 45.7195 67.9004 45.847 75.6572 45.5061C91.157 44.8246 97.7451 44.5625 117.312 44.9592C136.879 45.3558 146.099 44.455 157.505 44.5588C168.911 44.6626 168.724 45.194 226.721 44.7844C284.718 44.3748 316.512 44.2704 338.476 44.1721ZM559.066 44.1965C558.909 45.5267 559.003 46.8988 559.375 48.2443C559.145 48.2449 558.915 48.2447 558.685 48.2453C558.462 47.3623 558.343 46.4377 558.343 45.4855C558.343 45.0499 558.37 44.6202 558.418 44.1975C558.635 44.1968 558.851 44.1972 559.066 44.1965ZM580.764 44.0734C580.822 44.5362 580.855 45.0071 580.855 45.4855C580.855 46.4183 580.739 47.324 580.525 48.1906C580.402 48.1909 580.279 48.1913 580.157 48.1916C580.074 48.1918 579.99 48.1914 579.906 48.1916C580.256 46.8679 580.35 45.4717 580.163 44.0783C580.365 44.0765 580.565 44.0752 580.764 44.0734Z" fill="url(#paint0_linear_1111_869)"/>
<path d="M565.908 39.7624L563.043 38.3262C562.994 38.302 562.983 38.2385 563.019 38.1988L563.272 37.9238C563.296 37.8984 563.333 37.8906 563.364 37.9044L566.052 39.0744C566.338 39.2242 566.574 39.0223 566.657 38.9026L569.054 35.6628C569.069 35.6418 569.094 35.6296 569.12 35.63L569.522 35.6364C569.586 35.6374 569.624 35.7073 569.589 35.7608C569.019 36.6443 567.962 38.29 567.737 38.672C567.501 39.0724 567.678 39.6734 567.795 39.9238L569.685 42.8531C569.859 43.2212 569.603 43.1412 569.446 43.0517C569.441 43.0487 569.437 43.0452 569.432 43.0411L565.927 39.7755C565.921 39.7703 565.915 39.7659 565.908 39.7624Z" fill="url(#paint1_linear_1111_869)" stroke="url(#paint2_linear_1111_869)" stroke-width="0.243101"/>
<path d="M573.58 40.0468L574.073 36.8951C574.082 36.8417 574.139 36.8113 574.188 36.8344L574.525 36.9937C574.556 37.0084 574.575 37.041 574.571 37.0752L574.276 39.9798C574.221 40.2962 574.484 40.4615 574.622 40.5045L578.422 41.8259C578.447 41.8344 578.466 41.8542 578.473 41.8791L578.588 42.2622C578.607 42.3233 578.551 42.3809 578.49 42.3638C577.479 42.0829 575.599 41.5653 575.168 41.4645C574.717 41.3587 574.201 41.7048 573.999 41.891L571.793 44.5573C571.496 44.8326 571.495 44.5655 571.532 44.3897C571.533 44.3838 571.535 44.3782 571.538 44.3728L573.573 40.0689C573.576 40.0619 573.579 40.0545 573.58 40.0468Z" fill="url(#paint3_linear_1111_869)" stroke="url(#paint4_linear_1111_869)" stroke-width="0.243101"/>
<path d="M575.608 47.4007L578.74 46.9114C578.794 46.9031 578.841 46.9489 578.833 47.0028L578.781 47.3708C578.777 47.4046 578.751 47.4318 578.718 47.4388L575.876 48.0417C575.56 48.0852 575.481 48.3855 575.481 48.5302L575.347 52.5512C575.346 52.5716 575.338 52.5909 575.324 52.6054L574.978 52.9563C574.928 53.007 574.841 52.9734 574.839 52.9021C574.809 51.8287 574.762 49.7747 574.731 49.341C574.699 48.8801 574.218 48.4947 573.982 48.3595L570.803 47.0749C570.455 46.8773 570.708 46.7944 570.885 46.7764C570.891 46.7758 570.897 46.776 570.903 46.7768L575.584 47.401C575.592 47.402 575.6 47.4019 575.608 47.4007Z" fill="url(#paint5_linear_1111_869)" stroke="url(#paint6_linear_1111_869)" stroke-width="0.243101"/>
<path d="M569.234 51.6717L570.696 54.5541C570.72 54.6018 570.692 54.6594 570.64 54.6701L570.272 54.7451C570.237 54.752 570.203 54.7364 570.185 54.7062L568.71 52.1501C568.569 51.8574 568.258 51.8822 568.121 51.9312L564.269 53.1603C564.244 53.1683 564.216 53.1636 564.195 53.1475L563.874 52.9025C563.824 52.8642 563.834 52.7859 563.893 52.7628C564.875 52.3781 566.705 51.6571 567.113 51.4778C567.54 51.29 567.754 50.6926 567.807 50.4174L568.018 46.8942C568.095 46.4886 568.254 46.7065 568.327 46.8731C568.33 46.8786 568.331 46.8842 568.332 46.89L569.226 51.65C569.228 51.6575 569.23 51.6648 569.234 51.6717Z" fill="url(#paint7_linear_1111_869)" stroke="url(#paint8_linear_1111_869)" stroke-width="0.243101"/>
<path d="M563.368 46.9701L561.173 49.2917C561.136 49.331 561.071 49.3236 561.044 49.277L560.856 48.9549C560.838 48.9252 560.841 48.8877 560.864 48.8615L562.755 46.632C562.98 46.4022 562.856 46.1172 562.766 46.0034L560.374 42.7659C560.358 42.7449 560.354 42.7178 560.362 42.693L560.483 42.3114C560.503 42.2507 560.581 42.2346 560.622 42.2833C561.299 43.0865 562.56 44.5762 562.859 44.9027C563.172 45.245 563.795 45.2514 564.068 45.2118L567.403 44.2586C567.804 44.1988 567.654 44.4202 567.524 44.5441C567.519 44.5482 567.515 44.5517 567.509 44.5547L563.387 46.9557C563.38 46.9596 563.374 46.9644 563.368 46.9701Z" fill="url(#paint9_linear_1111_869)" stroke="url(#paint10_linear_1111_869)" stroke-width="0.243101"/>
<circle cx="569.547" cy="45.2153" r="9.55705" transform="rotate(-23.466 569.547 45.2153)" stroke="url(#paint11_linear_1111_869)" stroke-width="0.364651"/>
<circle cx="569.546" cy="45.2162" r="1.0947" transform="rotate(-23.466 569.546 45.2162)" fill="url(#paint12_linear_1111_869)"/>
<circle cx="569.542" cy="45.2167" r="0.688785" transform="rotate(-23.466 569.542 45.2167)" fill="#C1A065" stroke="#F8EABF" stroke-width="0.0405168"/>
<circle cx="568.302" cy="43.5984" r="0.32631" transform="rotate(-23.466 568.302 43.5984)" stroke="url(#paint13_linear_1111_869)" stroke-width="0.12155"/>
<circle cx="570.724" cy="43.3977" r="0.32631" transform="rotate(-23.466 570.724 43.3977)" stroke="url(#paint14_linear_1111_869)" stroke-width="0.12155"/>
<circle cx="571.54" cy="45.7244" r="0.32631" transform="rotate(-23.466 571.54 45.7244)" stroke="url(#paint15_linear_1111_869)" stroke-width="0.12155"/>
<circle cx="569.54" cy="47.2312" r="0.32631" transform="rotate(-23.466 569.54 47.2312)" stroke="url(#paint16_linear_1111_869)" stroke-width="0.12155"/>
<circle cx="567.607" cy="45.8416" r="0.32631" transform="rotate(-23.466 567.607 45.8416)" stroke="url(#paint17_linear_1111_869)" stroke-width="0.12155"/>
<path d="M569.713 33.5723C571.301 33.5723 572.822 33.8294 574.275 34.3438C575.751 34.8357 577.06 35.5855 578.2 36.5918C579.341 37.5757 580.246 38.7946 580.917 40.248C581.61 41.7016 581.957 43.3903 581.957 45.3135C581.957 46.5434 581.812 47.6843 581.521 48.7354C581.231 49.7864 580.828 50.7371 580.313 51.5869C579.799 52.4366 579.172 53.1973 578.435 53.8682C577.729 54.5079 576.957 55.0597 576.12 55.5254V55.5264L576.117 55.5273C576.107 55.533 576.097 55.5393 576.087 55.5449L576.089 55.5391L574.409 56.25C572.933 56.7866 571.368 57.0547 569.713 57.0547C569.047 57.0547 568.39 57.007 567.74 56.918L572.151 58.6641C573.405 59.1227 574.511 59.4588 575.469 59.6729C576.437 59.8869 577.294 59.9941 578.038 59.9941C579.108 59.9941 580.505 59.7238 582.228 59.1836L582.656 60.0713C580.761 61.1006 579.496 61.7376 578.864 61.9824C578.242 62.2271 577.722 62.3496 577.304 62.3496C576.356 62.3496 575.383 62.1657 574.384 61.7988C572.62 61.1362 570.346 59.9741 567.563 58.3125C565.984 57.3646 564.725 56.7221 563.787 56.3857C562.859 56.0494 561.615 55.7746 560.056 55.5605V54.3828C560.667 54.4542 561.32 54.5767 562.014 54.75L562.194 54.8174C561.86 54.5847 561.536 54.3367 561.226 54.0693C560.085 53.063 559.168 51.8325 558.475 50.3789C557.804 48.903 557.469 47.2142 557.469 45.3135C557.469 43.3904 557.804 41.7016 558.475 40.248C559.168 38.7946 560.085 37.5757 561.226 36.5918C562.366 35.5855 563.675 34.8357 565.15 34.3438C566.626 33.8294 568.147 33.5723 569.713 33.5723ZM569.509 34.8887C564.017 34.8887 559.528 39.175 559.202 44.585C559.2 44.6282 559.196 44.6714 559.194 44.7148C559.186 44.8804 559.183 45.0473 559.183 45.2148C559.183 50.9178 563.806 55.541 569.509 55.541C575.212 55.5408 579.835 50.9177 579.835 45.2148C579.835 39.5118 575.212 34.8889 569.509 34.8887Z" fill="url(#paint18_linear_1111_869)"/>
<defs>
<linearGradient id="paint0_linear_1111_869" x1="99.8619" y1="43.7876" x2="99.9079" y2="53.5335" gradientUnits="userSpaceOnUse">
<stop stop-color="#F9EAC0"/>
<stop offset="1" stop-color="#C1A165"/>
</linearGradient>
<linearGradient id="paint1_linear_1111_869" x1="563.281" y1="37.8947" x2="572.61" y2="41.4043" gradientUnits="userSpaceOnUse">
<stop stop-color="#F9EAC0"/>
<stop offset="1" stop-color="#C1A165"/>
</linearGradient>
<linearGradient id="paint2_linear_1111_869" x1="563.281" y1="37.8947" x2="572.61" y2="41.4043" gradientUnits="userSpaceOnUse">
<stop stop-color="#F9EAC0"/>
<stop offset="1" stop-color="#C1A165"/>
</linearGradient>
<linearGradient id="paint3_linear_1111_869" x1="574.555" y1="36.9928" x2="573.98" y2="46.9079" gradientUnits="userSpaceOnUse">
<stop stop-color="#F9EAC0"/>
<stop offset="1" stop-color="#C1A165"/>
</linearGradient>
<linearGradient id="paint4_linear_1111_869" x1="574.555" y1="36.9928" x2="573.98" y2="46.9079" gradientUnits="userSpaceOnUse">
<stop stop-color="#F9EAC0"/>
<stop offset="1" stop-color="#C1A165"/>
</linearGradient>
<linearGradient id="paint5_linear_1111_869" x1="578.786" y1="47.407" x2="569.06" y2="49.705" gradientUnits="userSpaceOnUse">
<stop stop-color="#F9EAC0"/>
<stop offset="1" stop-color="#C1A165"/>
</linearGradient>
<linearGradient id="paint6_linear_1111_869" x1="578.786" y1="47.407" x2="569.06" y2="49.705" gradientUnits="userSpaceOnUse">
<stop stop-color="#F9EAC0"/>
<stop offset="1" stop-color="#C1A165"/>
</linearGradient>
<linearGradient id="paint7_linear_1111_869" x1="570.247" y1="54.7641" x2="564.693" y2="46.4133" gradientUnits="userSpaceOnUse">
<stop stop-color="#F9EAC0"/>
<stop offset="1" stop-color="#C1A165"/>
</linearGradient>
<linearGradient id="paint8_linear_1111_869" x1="570.247" y1="54.7641" x2="564.693" y2="46.4133" gradientUnits="userSpaceOnUse">
<stop stop-color="#F9EAC0"/>
<stop offset="1" stop-color="#C1A165"/>
</linearGradient>
<linearGradient id="paint9_linear_1111_869" x1="560.83" y1="48.9387" x2="566.907" y2="41.0675" gradientUnits="userSpaceOnUse">
<stop stop-color="#F9EAC0"/>
<stop offset="1" stop-color="#C1A165"/>
</linearGradient>
<linearGradient id="paint10_linear_1111_869" x1="560.83" y1="48.9387" x2="566.907" y2="41.0675" gradientUnits="userSpaceOnUse">
<stop stop-color="#F9EAC0"/>
<stop offset="1" stop-color="#C1A165"/>
</linearGradient>
<linearGradient id="paint11_linear_1111_869" x1="561.047" y1="35.4759" x2="580.03" y2="54.2003" gradientUnits="userSpaceOnUse">
<stop stop-color="#F9EAC0"/>
<stop offset="1" stop-color="#C1A165"/>
</linearGradient>
<linearGradient id="paint12_linear_1111_869" x1="568.59" y1="44.1215" x2="570.724" y2="46.2261" gradientUnits="userSpaceOnUse">
<stop stop-color="#F9EAC0"/>
<stop offset="1" stop-color="#C1A165"/>
</linearGradient>
<linearGradient id="paint13_linear_1111_869" x1="567.964" y1="43.2113" x2="568.719" y2="43.9555" gradientUnits="userSpaceOnUse">
<stop stop-color="#F9EAC0"/>
<stop offset="1" stop-color="#C1A165"/>
</linearGradient>
<linearGradient id="paint14_linear_1111_869" x1="570.386" y1="43.0106" x2="571.141" y2="43.7548" gradientUnits="userSpaceOnUse">
<stop stop-color="#F9EAC0"/>
<stop offset="1" stop-color="#C1A165"/>
</linearGradient>
<linearGradient id="paint15_linear_1111_869" x1="571.203" y1="45.3373" x2="571.957" y2="46.0815" gradientUnits="userSpaceOnUse">
<stop stop-color="#F9EAC0"/>
<stop offset="1" stop-color="#C1A165"/>
</linearGradient>
<linearGradient id="paint16_linear_1111_869" x1="569.203" y1="46.8441" x2="569.957" y2="47.5883" gradientUnits="userSpaceOnUse">
<stop stop-color="#F9EAC0"/>
<stop offset="1" stop-color="#C1A165"/>
</linearGradient>
<linearGradient id="paint17_linear_1111_869" x1="567.269" y1="45.4545" x2="568.024" y2="46.1987" gradientUnits="userSpaceOnUse">
<stop stop-color="#F9EAC0"/>
<stop offset="1" stop-color="#C1A165"/>
</linearGradient>
<linearGradient id="paint18_linear_1111_869" x1="559.072" y1="33.5723" x2="586.819" y2="57.5275" gradientUnits="userSpaceOnUse">
<stop stop-color="#F9EAC0"/>
<stop offset="1" stop-color="#C1A165"/>
</linearGradient>
</defs>
</svg>
