<svg width="26" height="26" viewBox="0 0 26 26" fill="none" xmlns="http://www.w3.org/2000/svg">
<path d="M15.3709 1H5.79941C5.57648 1.00023 5.35803 1.06255 5.16853 1.17998C4.97904 1.29741 4.826 1.46529 4.72658 1.66482L1.12646 8.86506C1.02701 9.06417 0.984897 9.28701 1.00482 9.50869C1.02474 9.73035 1.10591 9.94212 1.23926 10.1203L12.0228 24.4968C12.1782 24.7147 12.402 24.8744 12.6586 24.9505C12.9151 25.0266 13.1898 25.0147 13.4389 24.9168C13.6546 24.8324 13.8413 24.6874 13.9765 24.4992L24.76 10.1203C24.8938 9.94187 24.9753 9.72967 24.9952 9.50752C25.0151 9.28537 24.9727 9.06207 24.8728 8.86266L21.2727 1.66242C21.1729 1.46334 21.0198 1.29595 20.8303 1.17896C20.6408 1.06197 20.4225 1.00001 20.1999 1H15.3709ZM14.5357 3.40008L16.1341 8.20024H9.86514L11.4636 3.40008H14.5357ZM18.6638 8.20024L17.0654 3.40008H19.4582L21.8583 8.20024H18.6638ZM16.1341 10.6003L12.9996 20.0086L9.86514 10.6003H16.1341ZM16.4774 17.1645L18.6638 10.6003H21.3999L16.4774 17.1645ZM9.52193 17.1645L4.59937 10.6003H7.33546L9.52193 17.1645ZM7.33546 8.20024H4.14096L6.54103 3.40008H8.93391L7.33546 8.20024Z" fill="url(#paint0_linear_333_99)"/>
<defs>
<linearGradient id="paint0_linear_333_99" x1="1" y1="1" x2="25.914" y2="24.0104" gradientUnits="userSpaceOnUse">
<stop stop-color="#FFE3E5"/>
<stop offset="1" stop-color="#BB878B"/>
</linearGradient>
</defs>
</svg>
