<svg width="13" height="14" viewBox="0 0 13 14" fill="none" xmlns="http://www.w3.org/2000/svg">
<path d="M12.2928 9.53486C11.4045 9.53486 10.545 9.39042 9.74337 9.13042C9.61775 9.0881 9.48277 9.08192 9.35381 9.11256C9.22485 9.14321 9.10708 9.20945 9.01392 9.30375L7.88003 10.7265C5.83615 9.75153 3.92226 7.90986 2.90392 5.79375L4.31226 4.59486C4.50726 4.39264 4.56503 4.11097 4.48559 3.85819C4.21837 3.05653 4.08115 2.19708 4.08115 1.30875C4.08115 0.91875 3.75615 0.59375 3.36615 0.59375H0.867257C0.477257 0.59375 0.0078125 0.767083 0.0078125 1.30875C0.0078125 8.01819 5.59059 13.5938 12.2928 13.5938C12.8056 13.5938 13.0078 13.1387 13.0078 12.7415V10.2499C13.0078 9.85986 12.6828 9.53486 12.2928 9.53486Z" fill="url(#paint0_linear_796_1457)"/>
<defs>
<linearGradient id="paint0_linear_796_1457" x1="0.835284" y1="0.59375" x2="13.5044" y2="13.0903" gradientUnits="userSpaceOnUse">
<stop stop-color="#F9EAC0"/>
<stop offset="1" stop-color="#C1A165"/>
</linearGradient>
</defs>
</svg>
