<svg width="42" height="42" viewBox="0 0 42 42" fill="none" xmlns="http://www.w3.org/2000/svg">
<rect x="0.314453" y="0.546875" width="41" height="41" rx="4" fill="#323232"/>
<path d="M24.499 11.8446C23.5634 10.8346 22.2567 10.2783 20.8145 10.2783C19.3645 10.2783 18.0535 10.8312 17.1222 11.835C16.1809 12.8499 15.7223 14.2292 15.83 15.7186C16.0434 18.6569 18.2794 21.0473 20.8145 21.0473C23.3495 21.0473 25.5816 18.6574 25.7985 15.7195C25.9076 14.2436 25.4461 12.8672 24.499 11.8446ZM29.2758 31.8162H12.3531C12.1316 31.8191 11.9123 31.7725 11.711 31.68C11.5098 31.5874 11.3317 31.4512 11.1897 31.2811C10.8772 30.9076 10.7513 30.3975 10.8445 29.8816C11.2503 27.6307 12.5166 25.7399 14.5069 24.4125C16.2752 23.2342 18.515 22.5857 20.8145 22.5857C23.1139 22.5857 25.3538 23.2347 27.122 24.4125C29.1123 25.7394 30.3786 27.6302 30.7844 29.8811C30.8776 30.397 30.7517 30.9071 30.4392 31.2806C30.2973 31.4508 30.1192 31.5871 29.9179 31.6798C29.7167 31.7724 29.4973 31.819 29.2758 31.8162Z" fill="url(#paint0_linear_486_1685)"/>
<defs>
<linearGradient id="paint0_linear_486_1685" x1="12.0875" y1="10.2783" x2="32.9986" y2="29.4317" gradientUnits="userSpaceOnUse">
<stop stop-color="#F9EAC0"/>
<stop offset="1" stop-color="#C1A165"/>
</linearGradient>
</defs>
</svg>
