<svg width="41" height="42" viewBox="0 0 41 42" fill="none" xmlns="http://www.w3.org/2000/svg">
<rect y="0.265625" width="41" height="41" rx="4" fill="#323232"/>
<path d="M15.0455 30.7656H12.3182C11.8182 30.7656 11.3903 30.5877 11.0345 30.232C10.6788 29.8762 10.5006 29.448 10.5 28.9474V26.2202H12.3182V28.9474H15.0455V30.7656ZM25.9545 30.7656V28.9474H28.6818V26.2202H30.5V28.9474C30.5 29.4474 30.3221 29.8756 29.9664 30.232C29.6106 30.5884 29.1824 30.7662 28.6818 30.7656H25.9545ZM20.5 26.6747C18.6818 26.6747 17.0342 26.1368 15.5573 25.0611C14.0803 23.9853 13.0006 22.5535 12.3182 20.7656C13 18.9777 14.0797 17.5459 15.5573 16.4702C17.0348 15.3944 18.6824 14.8565 20.5 14.8565C22.3176 14.8565 23.9655 15.3944 25.4436 16.4702C26.9218 17.5459 28.0012 18.9777 28.6818 20.7656C28 22.5535 26.9206 23.9853 25.4436 25.0611C23.9667 26.1368 22.3188 26.6747 20.5 26.6747ZM20.5 23.9474C21.3788 23.9474 22.1288 23.6368 22.75 23.0156C23.3712 22.3944 23.6818 21.6444 23.6818 20.7656C23.6818 19.8868 23.3712 19.1368 22.75 18.5156C22.1288 17.8944 21.3788 17.5838 20.5 17.5838C19.6212 17.5838 18.8712 17.8944 18.25 18.5156C17.6288 19.1368 17.3182 19.8868 17.3182 20.7656C17.3182 21.6444 17.6288 22.3944 18.25 23.0156C18.8712 23.6368 19.6212 23.9474 20.5 23.9474ZM20.5 22.1293C20.1212 22.1293 19.7994 21.9968 19.5345 21.732C19.2697 21.4671 19.137 21.145 19.1364 20.7656C19.1358 20.3862 19.2685 20.0644 19.5345 19.8002C19.8006 19.5359 20.1224 19.4032 20.5 19.402C20.8776 19.4008 21.1997 19.5335 21.4664 19.8002C21.733 20.0668 21.8655 20.3887 21.8636 20.7656C21.8618 21.1426 21.7294 21.4647 21.4664 21.732C21.2033 21.9993 20.8812 22.1317 20.5 22.1293ZM10.5 15.3111V12.5838C10.5 12.0838 10.6782 11.6559 11.0345 11.3002C11.3909 10.9444 11.8188 10.7662 12.3182 10.7656H15.0455V12.5838H12.3182V15.3111H10.5ZM28.6818 15.3111V12.5838H25.9545V10.7656H28.6818C29.1818 10.7656 29.61 10.9438 29.9664 11.3002C30.3227 11.6565 30.5006 12.0844 30.5 12.5838V15.3111H28.6818Z" fill="url(#paint0_linear_486_1681)"/>
<defs>
<linearGradient id="paint0_linear_486_1681" x1="11.773" y1="10.7656" x2="31.264" y2="29.9911" gradientUnits="userSpaceOnUse">
<stop stop-color="#F9EAC0"/>
<stop offset="1" stop-color="#C1A165"/>
</linearGradient>
</defs>
</svg>
