<svg width="42" height="46" viewBox="0 0 42 46" fill="none" xmlns="http://www.w3.org/2000/svg">
<path d="M7.51758 19.377V35.9873C7.5176 38.4436 8.90503 40.2101 11.1885 41.4961C13.4823 42.782 16.6435 43.4697 19.8135 43.4697C22.9834 43.4697 26.1437 42.782 28.4375 41.4961C30.4274 40.3721 31.741 38.8895 32.0449 36.8984H33.8818C33.5469 39.5818 31.7581 41.673 29.3516 43.0225H29.3506C26.6913 44.5239 23.2477 45.2304 19.8135 45.2305C16.379 45.2305 12.9348 44.5241 10.2754 43.0225C7.60597 41.521 5.69143 39.1061 5.69141 35.9873V19.377H7.51758ZM41.9844 5.04004V35.0752H24.0596V5.04004H41.9844ZM25.4736 33.7129H40.5713V28.7041H25.4736V33.7129ZM25.4736 27.3418H40.5713V22.332H25.4736V27.3418ZM25.4736 20.9697H40.5713V15.9609H25.4736V20.9697ZM10.6133 9.81934V14.9033L7.86719 17.5537H5.34473L2.5957 14.9033V9.81934H10.6133ZM4.21582 0.958984V6.43457H8.99316V0.958984H10.8193V6.43457H13.1934V8.19531H0.015625V6.43457H2.38867V0.958984H4.21582ZM37.2939 0.261719L38.3145 3.2168H27.7305L28.75 0.261719H37.2939Z" fill="url(#paint0_linear_486_2294)" stroke="url(#paint1_linear_486_2294)" stroke-width="0.03125"/>
<defs>
<linearGradient id="paint0_linear_486_2294" x1="2.67337" y1="0.246093" x2="46.3825" y2="40.4857" gradientUnits="userSpaceOnUse">
<stop stop-color="#F9EAC0"/>
<stop offset="1" stop-color="#C1A165"/>
</linearGradient>
<linearGradient id="paint1_linear_486_2294" x1="0" y1="0.246094" x2="46.3495" y2="40.2004" gradientUnits="userSpaceOnUse">
<stop stop-color="#FFE3E5"/>
<stop offset="1" stop-color="#BB878B"/>
</linearGradient>
</defs>
</svg>
