<svg width="34" height="46" viewBox="0 0 34 46" fill="none" xmlns="http://www.w3.org/2000/svg">
<path d="M5.23047 0.746094H28.7695C30.0221 0.746174 31.2247 1.25009 32.1123 2.14844C33 3.047 33.5 4.26678 33.5 5.54004V39.9521C33.5 41.2254 33 42.4452 32.1123 43.3438C31.2247 44.2421 30.0221 44.746 28.7695 44.7461H5.23047C3.97785 44.746 2.77529 44.2421 1.8877 43.3438C0.999975 42.4452 0.500045 41.2254 0.5 39.9521V5.54004C0.500045 4.26678 0.999976 3.047 1.8877 2.14844C2.71978 1.30628 3.82867 0.810674 4.99609 0.751953L5.23047 0.746094ZM4.73047 35.1582H29.2695V31.5107H4.73047V35.1582ZM4.73047 29.8633H29.2695V26.2168H4.73047V29.8633ZM4.73047 24.5693H29.2695V20.9229H4.73047V24.5693ZM4.73047 19.2754H16.1924V15.6289H4.73047V19.2754ZM17.8076 19.2754H29.2695V5.04004H17.8076V19.2754ZM4.73047 13.9814H16.1924V10.334H4.73047V13.9814ZM4.73047 8.6875H16.1924V5.04004H4.73047V8.6875Z" fill="url(#paint0_linear_486_2286)" stroke="url(#paint1_linear_486_2286)"/>
<defs>
<linearGradient id="paint0_linear_486_2286" x1="2.16416" y1="0.246093" x2="44.1932" y2="31.5689" gradientUnits="userSpaceOnUse">
<stop stop-color="#F9EAC0"/>
<stop offset="1" stop-color="#C1A165"/>
</linearGradient>
<linearGradient id="paint1_linear_486_2286" x1="0" y1="0.246094" x2="43.9838" y2="30.9392" gradientUnits="userSpaceOnUse">
<stop stop-color="#FFE3E5"/>
<stop offset="1" stop-color="#BB878B"/>
</linearGradient>
</defs>
</svg>
