<svg width="45" height="46" viewBox="0 0 45 46" fill="none" xmlns="http://www.w3.org/2000/svg">
<path d="M20.75 15.7881L20.6025 15.6416L11.6592 6.75488H11.6602C11.3474 6.44216 11.1875 6.05663 11.1875 5.5625C11.1876 5.08195 11.3566 4.67328 11.7158 4.3125C12.0282 4.00009 12.4143 3.83992 12.9102 3.83984C13.4058 3.83984 13.791 3.99916 14.1016 4.31055V4.31152L14.1084 4.31738L19.9014 9.94238L20.75 10.7656V2.49609C20.75 1.9848 20.9178 1.58009 21.251 1.24805C21.5851 0.915129 21.9907 0.74734 22.501 0.746094C23.0095 0.744894 23.4154 0.912465 23.751 1.24805C24.0863 1.5835 24.2524 1.98801 24.25 2.49414V10.7744L25.0996 9.94043L30.8379 4.31543L30.8408 4.3125C31.1532 4.00009 31.5393 3.83992 32.0352 3.83984C32.5226 3.83984 32.9291 3.99527 33.2793 4.30957C33.5983 4.66297 33.7558 5.07192 33.7559 5.5625C33.7559 5.99659 33.6341 6.34612 33.3945 6.63477L33.2842 6.75488L24.25 15.7891V20.9961H29.457L38.4912 11.9619C38.8037 11.6496 39.1896 11.4902 39.6855 11.4902C40.1684 11.4902 40.5762 11.659 40.9336 12.0176V12.0186C41.2463 12.3313 41.4062 12.7168 41.4062 13.2109C41.4062 13.7047 41.2466 14.0909 40.9336 14.4053L40.9307 14.4082L35.3057 20.1465L34.4717 20.9961H42.75C43.2613 20.9961 43.6672 21.1643 44.001 21.498C44.3345 21.8317 44.5012 22.2362 44.5 22.7451C44.4988 23.2554 44.3306 23.6621 43.9971 23.998C43.6655 24.3319 43.2619 24.4985 42.752 24.4961H34.4805L35.3037 25.3447L40.9287 31.1377L40.9336 31.1436C41.2461 31.456 41.4062 31.8419 41.4062 32.3379C41.4062 32.8338 41.2464 33.2186 40.9346 33.5293L40.9336 33.5303C40.5743 33.8894 40.1664 34.0586 39.6855 34.0586C39.2057 34.0586 38.824 33.8907 38.5059 33.5449L29.457 24.4961H24.25V29.7021L24.3955 29.8486L33.2832 38.792L33.2842 38.793C33.5967 39.1054 33.7559 39.4923 33.7559 39.9883C33.7558 40.4708 33.5868 40.8782 33.2285 41.2354L33.2275 41.2363C32.9148 41.549 32.5292 41.709 32.0352 41.709C31.5412 41.7089 31.1552 41.5486 30.8408 41.2354L30.8389 41.2344L25.1016 35.5537L24.25 34.71V43.0527C24.2499 43.5636 24.0827 43.9544 23.7568 44.2656C23.4243 44.5832 23.0166 44.7461 22.5 44.7461C21.9905 44.7461 21.586 44.5782 21.252 44.2441C20.9179 43.9101 20.75 43.5056 20.75 42.9961V34.7178L19.9004 35.5518L14.1064 41.2324L14.1025 41.2363C13.7898 41.549 13.4042 41.709 12.9102 41.709C12.4305 41.7089 12.0485 41.541 11.7305 41.1953L11.7158 41.1797L11.7002 41.165L11.5791 41.043C11.316 40.7516 11.1876 40.4078 11.1875 39.9883C11.1875 39.5075 11.3565 39.0982 11.7158 38.7373L20.75 29.7031V24.4961H15.543L6.45312 33.5859C6.14045 33.8986 5.75476 34.0585 5.26074 34.0586C4.77965 34.0586 4.36987 33.8892 4.00879 33.5293C3.69665 33.2167 3.53712 32.8315 3.53711 32.3379C3.53711 31.8437 3.69741 31.4571 4.01074 31.1426L4.01367 31.1396L9.69434 25.3457L10.5283 24.4961H2.19336C1.68247 24.496 1.29167 24.3288 0.980469 24.0029C0.662925 23.6704 0.5 23.2627 0.5 22.7461C0.500001 22.2366 0.667927 21.8321 1.00195 21.498C1.33598 21.164 1.74054 20.9961 2.25 20.9961H10.5361L9.69238 20.1445L4.01172 14.4072L4.00977 14.4053L3.89941 14.2842C3.6595 13.9942 3.53712 13.6451 3.53711 13.2129C3.53711 12.7921 3.6671 12.4263 3.94043 12.0996L4.06641 11.9619C4.37883 11.6496 4.76489 11.4902 5.26074 11.4902C5.75406 11.4903 6.16456 11.6487 6.51758 11.9707L15.543 20.9961H20.75V15.7881Z" fill="url(#paint0_linear_486_2275)" stroke="url(#paint1_linear_486_2275)"/>
<defs>
<linearGradient id="paint0_linear_486_2275" x1="2.86432" y1="0.246093" x2="46.7189" y2="43.5034" gradientUnits="userSpaceOnUse">
<stop stop-color="#F9EAC0"/>
<stop offset="1" stop-color="#C1A165"/>
</linearGradient>
<linearGradient id="paint1_linear_486_2275" x1="0" y1="0.246094" x2="46.7137" y2="43.3907" gradientUnits="userSpaceOnUse">
<stop stop-color="#FFE3E5"/>
<stop offset="1" stop-color="#BB878B"/>
</linearGradient>
</defs>
</svg>
