<svg width="56" height="46" viewBox="0 0 56 46" fill="none" xmlns="http://www.w3.org/2000/svg">
<path d="M14.0684 0.746094H41.5684C44.3067 0.746094 46.5684 3.04283 46.5684 5.87109V11.6025C43.3566 12.9145 41.0684 16.1052 41.0684 19.8496V25.0586H14.5684V19.8213C14.5684 16.105 12.281 12.8882 9.06836 11.5742V5.87109C9.06836 3.04283 11.33 0.746094 14.0684 0.746094ZM6.31836 39.1211H5.81836C3.08003 39.1211 0.818359 36.8244 0.818359 33.9961V19.9336C0.818359 18.5708 1.34814 17.266 2.28711 16.3057C3.22568 15.3458 4.49603 14.8086 5.81836 14.8086C7.14069 14.8086 8.41103 15.3458 9.34961 16.3057C10.2886 17.266 10.8184 18.5708 10.8184 19.9336V28.8711H44.8184V19.9336C44.8184 17.1053 47.08 14.8086 49.8184 14.8086C52.5567 14.8086 54.8184 17.1053 54.8184 19.9336V33.9961C54.8184 36.8244 52.5567 39.1211 49.8184 39.1211H49.3184V44.7461H44.8184V39.1211H10.8184V44.7461H6.31836V39.1211Z" fill="url(#paint0_linear_486_2272)" stroke="url(#paint1_linear_486_2272)"/>
<defs>
<linearGradient id="paint0_linear_486_2272" x1="3.8192" y1="0.246093" x2="46.9224" y2="52.2103" gradientUnits="userSpaceOnUse">
<stop stop-color="#F9EAC0"/>
<stop offset="1" stop-color="#C1A165"/>
</linearGradient>
<linearGradient id="paint1_linear_486_2272" x1="0.318359" y1="0.246094" x2="46.8376" y2="52.7589" gradientUnits="userSpaceOnUse">
<stop stop-color="#FFE3E5"/>
<stop offset="1" stop-color="#BB878B"/>
</linearGradient>
</defs>
</svg>
