<svg width="24" height="46" viewBox="0 0 24 46" fill="none" xmlns="http://www.w3.org/2000/svg">
<path d="M8.44727 8.69922H15.5527C17.1343 8.69922 18.6785 9.11191 20.0166 9.90137L21.498 10.7715C23.0497 11.6741 23.9844 13.2598 23.9844 14.9678C23.9844 16.4568 23.2841 17.7977 22.1719 18.7002L22.1572 18.7109L22.1709 18.7236C23.2928 19.7404 23.9844 21.1688 23.9844 22.7461C23.9844 24.4197 23.1996 25.9275 21.9561 26.9531L21.9414 26.9648L21.9561 26.9766C23.1996 28.0022 23.9844 29.51 23.9844 31.1836C23.9844 32.8572 23.1996 34.365 21.9561 35.3906L21.9414 35.4023L21.9561 35.4141C23.1996 36.4397 23.9844 37.9475 23.9844 39.6211C23.9844 42.7141 21.3017 45.2305 18 45.2305H6C2.69829 45.2305 0.015625 42.7141 0.015625 39.6211C0.015625 37.9475 0.800394 36.4397 2.04395 35.4141L2.05859 35.4023L2.04395 35.3906C0.800394 34.365 0.015625 32.8572 0.015625 31.1836C0.015625 29.51 0.800394 28.0022 2.04395 26.9766L2.05859 26.9648L2.04395 26.9531C0.800394 25.9275 0.015625 24.4197 0.015625 22.7461C0.015625 21.1688 0.707225 19.7404 1.8291 18.7236L1.84277 18.7109L1.8291 18.7002C0.716761 17.7888 0.015625 16.4568 0.015625 14.9678C0.015625 13.2598 0.950257 11.6741 2.50195 10.7715L3.9834 9.90137C5.32149 9.11191 6.86569 8.69922 8.44727 8.69922ZM7.5 31.168C6.66734 31.168 5.98438 31.8068 5.98438 32.5898C5.98438 33.3728 6.66734 34.0117 7.5 34.0117H16.5C17.3327 34.0117 18.0156 33.3728 18.0156 32.5898C18.0156 31.8068 17.3327 31.168 16.5 31.168H7.5ZM7.5 19.918C6.66734 19.918 5.98438 20.5568 5.98438 21.3398C5.98438 22.1228 6.66734 22.7617 7.5 22.7617H16.5C17.3327 22.7617 18.0156 22.1228 18.0156 21.3398C18.0156 20.5568 17.3327 19.918 16.5 19.918H7.5ZM8.25 0.261719H15.75C16.9892 0.261719 17.9844 1.19609 17.9844 2.35547V5.85547H6.01562V2.35547C6.01562 1.19609 7.01079 0.261719 8.25 0.261719Z" fill="url(#paint0_linear_486_2283)" stroke="url(#paint1_linear_486_2283)" stroke-width="0.03125"/>
<defs>
<linearGradient id="paint0_linear_486_2283" x1="1.52764" y1="0.246093" x2="37.6706" y2="19.2598" gradientUnits="userSpaceOnUse">
<stop stop-color="#F9EAC0"/>
<stop offset="1" stop-color="#C1A165"/>
</linearGradient>
<linearGradient id="paint1_linear_486_2283" x1="0" y1="0.246094" x2="37.1518" y2="18.5465" gradientUnits="userSpaceOnUse">
<stop stop-color="#FFE3E5"/>
<stop offset="1" stop-color="#BB878B"/>
</linearGradient>
</defs>
</svg>
