<svg width="42" height="42" viewBox="0 0 42 42" fill="none" xmlns="http://www.w3.org/2000/svg">
<rect x="0.283203" y="0.267578" width="41" height="41" rx="4" fill="#323232"/>
<path d="M20.7832 10.7676C26.3062 10.7676 30.7832 15.2446 30.7832 20.7676C30.7832 26.2906 26.3062 30.7676 20.7832 30.7676C19.016 30.7706 17.2798 30.3029 15.7532 29.4126L10.7872 30.7676L12.1392 25.7996C11.2482 24.2725 10.7801 22.5356 10.7832 20.7676C10.7832 15.2446 15.2602 10.7676 20.7832 10.7676ZM17.3752 16.0676L17.1752 16.0756C17.0459 16.0845 16.9196 16.1185 16.8032 16.1756C16.6948 16.2371 16.5958 16.3139 16.5092 16.4036C16.3892 16.5166 16.3212 16.6146 16.2482 16.7096C15.8783 17.1905 15.6792 17.7809 15.6822 18.3876C15.6842 18.8776 15.8122 19.3546 16.0122 19.8006C16.4212 20.7026 17.0942 21.6576 17.9822 22.5426C18.1962 22.7556 18.4062 22.9696 18.6322 23.1686C19.7357 24.14 21.0505 24.8405 22.4722 25.2146L23.0402 25.3016C23.2252 25.3116 23.4102 25.2976 23.5962 25.2886C23.8874 25.2732 24.1717 25.1944 24.4292 25.0576C24.5601 24.9899 24.6879 24.9165 24.8122 24.8376C24.8122 24.8376 24.8546 24.8089 24.9372 24.7476C25.0722 24.6476 25.1552 24.5766 25.2672 24.4596C25.3512 24.3729 25.4212 24.2722 25.4772 24.1576C25.5552 23.9946 25.6332 23.6836 25.6652 23.4246C25.6892 23.2266 25.6822 23.1186 25.6792 23.0516C25.6752 22.9446 25.5862 22.8336 25.4892 22.7866L24.9072 22.5256C24.9072 22.5256 24.0372 22.1466 23.5052 21.9046C23.4495 21.8803 23.3899 21.8664 23.3292 21.8636C23.2608 21.8564 23.1916 21.8641 23.1264 21.886C23.0612 21.9079 23.0014 21.9436 22.9512 21.9906C22.9462 21.9886 22.8792 22.0456 22.1562 22.9216C22.1147 22.9773 22.0576 23.0195 21.992 23.0426C21.9265 23.0658 21.8555 23.0689 21.7882 23.0516C21.723 23.0342 21.6592 23.0122 21.5972 22.9856C21.4732 22.9336 21.4302 22.9136 21.3452 22.8776C20.7711 22.6275 20.2397 22.2891 19.7702 21.8746C19.6442 21.7646 19.5272 21.6446 19.4072 21.5286C19.0138 21.1518 18.671 20.7256 18.3872 20.2606L18.3282 20.1656C18.2865 20.1014 18.2523 20.0326 18.2262 19.9606C18.1882 19.8136 18.2872 19.6956 18.2872 19.6956C18.2872 19.6956 18.5302 19.4296 18.6432 19.2856C18.7532 19.1456 18.8462 19.0096 18.9062 18.9126C19.0242 18.7226 19.0612 18.5276 18.9992 18.3766C18.7192 17.6926 18.4299 17.0122 18.1312 16.3356C18.0722 16.2016 17.8972 16.1056 17.7382 16.0866C17.6842 16.0799 17.6302 16.0746 17.5762 16.0706C17.4419 16.0629 17.3073 16.0642 17.1732 16.0746L17.3752 16.0676Z" fill="url(#paint0_linear_486_1677)"/>
<defs>
<linearGradient id="paint0_linear_486_1677" x1="12.0562" y1="10.7676" x2="31.5472" y2="29.9931" gradientUnits="userSpaceOnUse">
<stop stop-color="#F9EAC0"/>
<stop offset="1" stop-color="#C1A165"/>
</linearGradient>
</defs>
</svg>
